STARTFONT 2.1
FONT -FontForge-PP Fraktion Mono-Regular-R-Normal--24-240-75-75-P-133-ISO10646-1
SIZE 24 75 75
FONTBOUNDINGBOX 26 34 -11 -6
COMMENT "Generated by fontforge, http://fontforge.sourceforge.net"
COMMENT "Copyright \(c\) 2020 by Juri Zaech. All rights reserved."
STARTPROPERTIES 40
FOUNDRY "FontForge"
FAMILY_NAME "PP Fraktion Mono"
WEIGHT_NAME "Regular"
SLANT "R"
SETWIDTH_NAME "Normal"
ADD_STYLE_NAME ""
PIXEL_SIZE 24
POINT_SIZE 240
RESOLUTION_X 75
RESOLUTION_Y 75
SPACING "P"
AVERAGE_WIDTH 133
CHARSET_REGISTRY "ISO10646"
CHARSET_ENCODING "1"
FONTNAME_REGISTRY ""
CHARSET_COLLECTIONS "ISO8859-2 ISO8859-9 ISO8859-4 ISO10646-1"
FONT_NAME "PPFraktionMono-Regular"
FACE_NAME "PP Fraktion Mono Regular"
COPYRIGHT "Copyright \(c\) 2020 by Juri Zaech. All rights reserved."
FONT_VERSION "001.100"
FONT_ASCENT 19
FONT_DESCENT 5
UNDERLINE_POSITION -1
UNDERLINE_THICKNESS 2
X_HEIGHT 11
CAP_HEIGHT 16
RAW_ASCENT 800
RAW_DESCENT 200
NORM_SPACE 14
RELATIVE_WEIGHT 40
RELATIVE_SETWIDTH 50
SUPERSCRIPT_X 0
SUPERSCRIPT_Y 8
SUPERSCRIPT_SIZE 14
SUBSCRIPT_X 0
SUBSCRIPT_Y 1
SUBSCRIPT_SIZE 14
FIGURE_WIDTH 14
AVG_LOWERCASE_WIDTH 140
AVG_UPPERCASE_WIDTH 140
ENDPROPERTIES
CHARS 604
STARTCHAR space
ENCODING 32
SWIDTH 600 0
DWIDTH 14 0
BBX 1 1 0 0
BITMAP
00
ENDCHAR
STARTCHAR exclam
ENCODING 33
SWIDTH 600 0
DWIDTH 14 0
BBX 3 17 6 0
BITMAP
C0
C0
C0
C0
C0
C0
C0
C0
C0
C0
C0
C0
00
00
E0
E0
E0
ENDCHAR
STARTCHAR quotedbl
ENCODING 34
SWIDTH 600 0
DWIDTH 14 0
BBX 6 7 4 10
BITMAP
CC
CC
CC
CC
CC
CC
4C
ENDCHAR
STARTCHAR numbersign
ENCODING 35
SWIDTH 600 0
DWIDTH 14 0
BBX 12 17 1 0
BITMAP
0460
0C60
0C40
0C40
7FF0
7FF0
18C0
18C0
1880
1080
FFE0
FFE0
3180
3100
2100
2300
2300
ENDCHAR
STARTCHAR dollar
ENCODING 36
SWIDTH 600 0
DWIDTH 14 0
BBX 11 21 2 -2
BITMAP
0C00
0C00
3F00
7F80
CCC0
CCC0
CC40
CC00
6C00
7C00
1F00
0FC0
0CC0
0C60
8C60
CC60
CCC0
7FC0
3F00
0C00
0C00
ENDCHAR
STARTCHAR percent
ENCODING 37
SWIDTH 600 0
DWIDTH 14 0
BBX 13 17 1 0
BITMAP
3810
EC30
8620
8260
8640
6CC0
3880
0000
0000
0000
01E0
1330
3210
2618
6210
4330
C1E0
ENDCHAR
STARTCHAR ampersand
ENCODING 38
SWIDTH 600 0
DWIDTH 14 0
BBX 13 17 1 0
BITMAP
1E00
3F00
3180
3180
3180
3300
1E00
1C00
3E10
7630
6360
C1E0
C0C0
C1C0
C3E0
7F30
3C38
ENDCHAR
STARTCHAR quotesingle
ENCODING 39
SWIDTH 600 0
DWIDTH 14 0
BBX 2 7 6 10
BITMAP
C0
C0
C0
C0
C0
C0
C0
ENDCHAR
STARTCHAR parenleft
ENCODING 40
SWIDTH 600 0
DWIDTH 14 0
BBX 7 21 4 -3
BITMAP
06
1E
38
30
60
60
C0
C0
C0
C0
C0
C0
C0
C0
C0
40
60
30
38
1E
06
ENDCHAR
STARTCHAR parenright
ENCODING 41
SWIDTH 600 0
DWIDTH 14 0
BBX 7 21 3 -3
BITMAP
C0
F0
18
0C
0C
06
06
06
02
02
02
02
02
06
06
06
0C
0C
18
F0
E0
ENDCHAR
STARTCHAR asterisk
ENCODING 42
SWIDTH 600 0
DWIDTH 14 0
BBX 9 9 3 8
BITMAP
1800
1800
0800
EB80
3E00
1C00
3400
6600
0200
ENDCHAR
STARTCHAR plus
ENCODING 43
SWIDTH 600 0
DWIDTH 14 0
BBX 10 10 2 3
BITMAP
0C00
0C00
0C00
0C00
FFC0
FFC0
0C00
0C00
0C00
0C00
ENDCHAR
STARTCHAR comma
ENCODING 44
SWIDTH 600 0
DWIDTH 14 0
BBX 3 7 6 -4
BITMAP
E0
E0
E0
40
40
C0
80
ENDCHAR
STARTCHAR hyphen
ENCODING 45
SWIDTH 600 0
DWIDTH 14 0
BBX 7 2 4 6
BITMAP
FE
FE
ENDCHAR
STARTCHAR period
ENCODING 46
SWIDTH 600 0
DWIDTH 14 0
BBX 3 3 6 0
BITMAP
E0
E0
E0
ENDCHAR
STARTCHAR slash
ENCODING 47
SWIDTH 600 0
DWIDTH 14 0
BBX 8 22 3 -3
BITMAP
01
03
03
02
06
06
04
0C
0C
0C
08
18
18
10
30
30
20
60
60
40
C0
C0
ENDCHAR
STARTCHAR zero
ENCODING 48
SWIDTH 600 0
DWIDTH 14 0
BBX 11 17 2 0
BITMAP
3F00
7F80
E0C0
C0C0
C040
C060
C060
C060
CC60
CC60
C060
C060
C040
C0C0
E0C0
7F80
1F00
ENDCHAR
STARTCHAR one
ENCODING 49
SWIDTH 600 0
DWIDTH 14 0
BBX 10 17 2 0
BITMAP
0C00
0C00
0C00
0C00
FC00
EC00
0C00
0C00
0C00
0C00
0C00
0C00
0C00
0C00
0C00
FFC0
FFC0
ENDCHAR
STARTCHAR two
ENCODING 50
SWIDTH 600 0
DWIDTH 14 0
BBX 10 17 2 0
BITMAP
1F00
7F80
60C0
C040
C040
C040
00C0
00C0
0380
0700
1C00
3800
7000
E000
C000
FFC0
FFC0
ENDCHAR
STARTCHAR three
ENCODING 51
SWIDTH 600 0
DWIDTH 14 0
BBX 11 17 2 0
BITMAP
1F00
7F80
60C0
C0C0
C0C0
00C0
00C0
0F80
0F80
00C0
0060
8060
8060
C060
C0C0
7FC0
3F00
ENDCHAR
STARTCHAR four
ENCODING 52
SWIDTH 600 0
DWIDTH 14 0
BBX 12 17 1 0
BITMAP
0380
0380
0680
0480
0C80
1880
1880
3080
3080
6080
4080
C080
FFF0
FFF0
0080
0080
0080
ENDCHAR
STARTCHAR five
ENCODING 53
SWIDTH 600 0
DWIDTH 14 0
BBX 11 17 2 0
BITMAP
7FC0
7FC0
4000
4000
4000
C000
CF00
FFC0
E0C0
4060
0060
0060
C060
C060
C0C0
7F80
3F00
ENDCHAR
STARTCHAR six
ENCODING 54
SWIDTH 600 0
DWIDTH 14 0
BBX 11 17 2 0
BITMAP
3F00
7F80
E0C0
C0C0
C0C0
C0C0
C000
DF00
FF80
E0C0
C040
C060
C060
C040
C0C0
7F80
1F00
ENDCHAR
STARTCHAR seven
ENCODING 55
SWIDTH 600 0
DWIDTH 14 0
BBX 10 17 2 0
BITMAP
FFC0
FFC0
8040
80C0
0180
0180
0300
0300
0600
0600
0400
0C00
0C00
0800
1800
1800
1800
ENDCHAR
STARTCHAR eight
ENCODING 56
SWIDTH 600 0
DWIDTH 14 0
BBX 12 17 1 0
BITMAP
1F80
3FC0
7060
6060
6060
6060
3060
19C0
1F80
30E0
6060
4030
C030
4030
6060
3FE0
1F80
ENDCHAR
STARTCHAR nine
ENCODING 57
SWIDTH 600 0
DWIDTH 14 0
BBX 11 17 2 0
BITMAP
3F00
7F80
C0C0
C040
C040
C060
C060
C0E0
7F60
3E60
0060
0060
C040
C0C0
60C0
7F80
1F00
ENDCHAR
STARTCHAR colon
ENCODING 58
SWIDTH 600 0
DWIDTH 14 0
BBX 3 12 6 0
BITMAP
E0
E0
E0
00
00
00
00
00
00
E0
E0
E0
ENDCHAR
STARTCHAR semicolon
ENCODING 59
SWIDTH 600 0
DWIDTH 14 0
BBX 3 16 6 -4
BITMAP
E0
E0
E0
00
00
00
00
00
00
E0
E0
E0
40
40
C0
80
ENDCHAR
STARTCHAR less
ENCODING 60
SWIDTH 600 0
DWIDTH 14 0
BBX 10 9 2 3
BITMAP
01C0
0780
3C00
F000
C000
F800
1F00
03C0
0040
ENDCHAR
STARTCHAR equal
ENCODING 61
SWIDTH 600 0
DWIDTH 14 0
BBX 10 6 2 5
BITMAP
FFC0
FFC0
0000
0000
FFC0
FFC0
ENDCHAR
STARTCHAR greater
ENCODING 62
SWIDTH 600 0
DWIDTH 14 0
BBX 10 9 2 3
BITMAP
E000
7C00
0F80
01C0
00C0
07C0
3E00
F000
C000
ENDCHAR
STARTCHAR question
ENCODING 63
SWIDTH 600 0
DWIDTH 14 0
BBX 10 17 2 0
BITMAP
1F00
7F80
60C0
40C0
C0C0
C0C0
0180
0300
0600
0C00
0C00
0C00
0000
0000
0E00
0E00
0E00
ENDCHAR
STARTCHAR at
ENCODING 64
SWIDTH 600 0
DWIDTH 14 0
BBX 13 20 1 -3
BITMAP
1F80
38E0
6020
C030
C010
8010
8E98
8998
9998
9898
9898
9990
9990
8EF0
8000
C000
C020
6060
39C0
1F80
ENDCHAR
STARTCHAR A
ENCODING 65
SWIDTH 600 0
DWIDTH 14 0
BBX 12 17 1 0
BITMAP
0700
0F00
0D00
0D80
0980
1980
1880
18C0
30C0
30C0
3FE0
3FE0
6060
6060
6030
4030
C030
ENDCHAR
STARTCHAR B
ENCODING 66
SWIDTH 600 0
DWIDTH 14 0
BBX 11 17 2 0
BITMAP
FF00
FF80
C0C0
C0C0
C040
C0C0
C0C0
FF80
FF80
C0C0
C060
C060
C060
C060
C0E0
FFC0
FF80
ENDCHAR
STARTCHAR C
ENCODING 67
SWIDTH 600 0
DWIDTH 14 0
BBX 11 17 2 0
BITMAP
3F00
7F80
E0C0
C0C0
C060
C060
C000
C000
C000
C000
C000
C060
C060
C0C0
E0C0
7F80
3F00
ENDCHAR
STARTCHAR D
ENCODING 68
SWIDTH 600 0
DWIDTH 14 0
BBX 11 17 2 0
BITMAP
FF00
FF80
C0C0
C0C0
C060
C060
C060
C060
C060
C060
C060
C060
C060
C0C0
C0C0
FF80
FF00
ENDCHAR
STARTCHAR E
ENCODING 69
SWIDTH 600 0
DWIDTH 14 0
BBX 10 17 3 0
BITMAP
FFC0
FFC0
8000
8000
8000
8000
8000
FF00
FF00
8000
8000
8000
8000
8000
8000
FFC0
FFC0
ENDCHAR
STARTCHAR F
ENCODING 70
SWIDTH 600 0
DWIDTH 14 0
BBX 10 17 3 0
BITMAP
FFC0
FFC0
C000
C000
C000
C000
C000
FF80
FF80
C000
C000
C000
C000
C000
C000
C000
C000
ENDCHAR
STARTCHAR G
ENCODING 71
SWIDTH 600 0
DWIDTH 14 0
BBX 11 17 2 0
BITMAP
3F00
7F80
E0C0
C0C0
C060
C060
C000
C000
C000
C3E0
C3E0
C060
C060
C0E0
E0E0
7F60
3E60
ENDCHAR
STARTCHAR H
ENCODING 72
SWIDTH 600 0
DWIDTH 14 0
BBX 10 17 2 0
BITMAP
C040
C040
C040
C040
C040
C040
C040
C040
FFC0
FFC0
C040
C040
C040
C040
C040
C040
C040
ENDCHAR
STARTCHAR I
ENCODING 73
SWIDTH 600 0
DWIDTH 14 0
BBX 10 17 2 0
BITMAP
FFC0
FFC0
0C00
0C00
0C00
0C00
0C00
0C00
0C00
0C00
0C00
0C00
0C00
0C00
0C00
FFC0
FFC0
ENDCHAR
STARTCHAR J
ENCODING 74
SWIDTH 600 0
DWIDTH 14 0
BBX 10 17 2 0
BITMAP
3FC0
3FC0
0040
0040
0040
0040
0040
0040
0040
C040
C040
C040
C0C0
C0C0
60C0
7F80
1F00
ENDCHAR
STARTCHAR K
ENCODING 75
SWIDTH 600 0
DWIDTH 14 0
BBX 11 17 2 0
BITMAP
C060
C0C0
C180
C180
C300
C600
CC00
CC00
DE00
F600
F300
E300
C180
C0C0
C0C0
C060
C060
ENDCHAR
STARTCHAR L
ENCODING 76
SWIDTH 600 0
DWIDTH 14 0
BBX 10 17 3 0
BITMAP
C000
C000
C000
C000
C000
C000
C000
C000
C000
C000
C000
C000
C000
C000
C000
FFC0
FFC0
ENDCHAR
STARTCHAR M
ENCODING 77
SWIDTH 600 0
DWIDTH 14 0
BBX 11 17 2 0
BITMAP
C0E0
E0E0
E1E0
E160
F160
D360
DA60
CE60
CC60
CC60
C460
C060
C060
C060
C060
C060
C060
ENDCHAR
STARTCHAR N
ENCODING 78
SWIDTH 600 0
DWIDTH 14 0
BBX 10 17 2 0
BITMAP
E0C0
E0C0
F0C0
F0C0
D8C0
D8C0
C8C0
CCC0
CCC0
C4C0
C6C0
C6C0
C3C0
C3C0
C1C0
C1C0
C1C0
ENDCHAR
STARTCHAR O
ENCODING 79
SWIDTH 600 0
DWIDTH 14 0
BBX 11 17 2 0
BITMAP
3F00
7F80
E0C0
C0C0
C060
C060
C060
C060
C060
C060
C060
C060
C060
C0C0
E0C0
7F80
3F00
ENDCHAR
STARTCHAR P
ENCODING 80
SWIDTH 600 0
DWIDTH 14 0
BBX 11 17 2 0
BITMAP
FF80
FFC0
C060
C060
C060
C060
C060
C060
FFC0
FF80
C000
C000
C000
C000
C000
C000
C000
ENDCHAR
STARTCHAR Q
ENCODING 81
SWIDTH 600 0
DWIDTH 14 0
BBX 11 22 2 -5
BITMAP
3F00
7F80
E0C0
C0C0
C060
C060
C060
C060
C060
C060
C060
C060
C060
C0C0
C0C0
7F80
1F00
0C00
0C00
0C00
0780
0380
ENDCHAR
STARTCHAR R
ENCODING 82
SWIDTH 600 0
DWIDTH 14 0
BBX 11 17 2 0
BITMAP
FF00
FFC0
C0C0
C060
C060
C060
C060
C0C0
FFC0
FF80
C600
C600
C300
C180
C180
C0C0
C0C0
ENDCHAR
STARTCHAR S
ENCODING 83
SWIDTH 600 0
DWIDTH 14 0
BBX 11 17 2 0
BITMAP
3F00
7F80
C0C0
C0C0
C040
C000
6000
7C00
1F00
03C0
00C0
0060
8060
C060
C0C0
7FC0
3F00
ENDCHAR
STARTCHAR T
ENCODING 84
SWIDTH 600 0
DWIDTH 14 0
BBX 12 17 1 0
BITMAP
FFF0
FFF0
0600
0600
0600
0600
0600
0600
0600
0600
0600
0600
0600
0600
0600
0600
0600
ENDCHAR
STARTCHAR U
ENCODING 85
SWIDTH 600 0
DWIDTH 14 0
BBX 10 17 2 0
BITMAP
C040
C040
C040
C040
C040
C040
C040
C040
C040
C040
C040
C040
C0C0
C0C0
60C0
7F80
1F00
ENDCHAR
STARTCHAR V
ENCODING 86
SWIDTH 600 0
DWIDTH 14 0
BBX 12 17 1 0
BITMAP
C030
C030
6030
6060
6060
3060
3040
30C0
30C0
18C0
1880
1980
0980
0D80
0D00
0F00
0700
ENDCHAR
STARTCHAR W
ENCODING 87
SWIDTH 600 0
DWIDTH 14 0
BBX 12 17 1 0
BITMAP
C610
C710
C710
CF10
CD30
CD30
C930
4930
49B0
49B0
59B0
58A0
58A0
50A0
70A0
70E0
70E0
ENDCHAR
STARTCHAR X
ENCODING 88
SWIDTH 600 0
DWIDTH 14 0
BBX 12 17 1 0
BITMAP
6030
6060
3040
30C0
1980
0D80
0F00
0700
0600
0F00
0D80
1980
18C0
30C0
3060
6060
C030
ENDCHAR
STARTCHAR Y
ENCODING 89
SWIDTH 600 0
DWIDTH 14 0
BBX 12 17 1 0
BITMAP
C030
6030
6060
3060
30C0
1880
1980
0D00
0700
0600
0600
0600
0600
0600
0600
0600
0600
ENDCHAR
STARTCHAR Z
ENCODING 90
SWIDTH 600 0
DWIDTH 14 0
BBX 11 17 2 0
BITMAP
FFE0
FFE0
00C0
0180
0180
0300
0200
0600
0C00
0800
1800
3000
2000
6000
C000
FFE0
FFE0
ENDCHAR
STARTCHAR bracketleft
ENCODING 91
SWIDTH 600 0
DWIDTH 14 0
BBX 7 22 5 -4
BITMAP
FE
FE
80
80
80
80
80
80
80
80
80
80
80
80
80
80
80
80
80
80
FE
FE
ENDCHAR
STARTCHAR backslash
ENCODING 92
SWIDTH 600 0
DWIDTH 14 0
BBX 8 22 3 -3
BITMAP
C0
C0
40
60
60
20
30
30
10
18
18
18
0C
0C
0C
04
06
06
02
03
03
01
ENDCHAR
STARTCHAR bracketright
ENCODING 93
SWIDTH 600 0
DWIDTH 14 0
BBX 7 22 3 -4
BITMAP
FE
FE
06
06
06
06
06
06
06
06
06
06
06
06
06
06
06
06
06
06
FE
FE
ENDCHAR
STARTCHAR asciicircum
ENCODING 94
SWIDTH 600 0
DWIDTH 14 0
BBX 8 7 3 10
BITMAP
18
3C
34
26
62
43
C3
ENDCHAR
STARTCHAR underscore
ENCODING 95
SWIDTH 600 0
DWIDTH 14 0
BBX 11 2 2 -5
BITMAP
FFE0
FFE0
ENDCHAR
STARTCHAR grave
ENCODING 96
SWIDTH 600 0
DWIDTH 14 0
BBX 5 4 4 13
BITMAP
E0
60
30
18
ENDCHAR
STARTCHAR a
ENCODING 97
SWIDTH 600 0
DWIDTH 14 0
BBX 12 12 2 0
BITMAP
3E00
7F80
E180
C080
0080
0380
7F80
C080
8180
8280
FEF0
78F0
ENDCHAR
STARTCHAR b
ENCODING 98
SWIDTH 600 0
DWIDTH 14 0
BBX 10 17 2 0
BITMAP
C000
C000
C000
C000
C000
CF00
DF80
E0C0
C0C0
C040
C040
C040
C0C0
C0C0
E0C0
DF80
CF00
ENDCHAR
STARTCHAR c
ENCODING 99
SWIDTH 600 0
DWIDTH 14 0
BBX 10 12 2 0
BITMAP
1F00
7F80
60C0
C0C0
C000
C000
C000
C000
C0C0
60C0
7F80
1F00
ENDCHAR
STARTCHAR d
ENCODING 100
SWIDTH 600 0
DWIDTH 14 0
BBX 10 17 2 0
BITMAP
00C0
00C0
00C0
00C0
00C0
3EC0
7FC0
61C0
C0C0
C0C0
C0C0
C0C0
C0C0
C0C0
61C0
7FC0
3EC0
ENDCHAR
STARTCHAR e
ENCODING 101
SWIDTH 600 0
DWIDTH 14 0
BBX 10 12 2 0
BITMAP
1F00
7F80
60C0
C0C0
C040
FFC0
C000
C000
C0C0
60C0
7F80
1F00
ENDCHAR
STARTCHAR f
ENCODING 102
SWIDTH 600 0
DWIDTH 14 0
BBX 12 17 1 0
BITMAP
07F0
07F0
0C00
0C00
0C00
FFF0
FFF0
0C00
0C00
0C00
0C00
0C00
0C00
0C00
0C00
FFF0
FFF0
ENDCHAR
STARTCHAR g
ENCODING 103
SWIDTH 600 0
DWIDTH 14 0
BBX 10 17 2 -5
BITMAP
3EC0
7FC0
61C0
C0C0
C0C0
C0C0
C0C0
C0C0
C0C0
61C0
7FC0
3EC0
00C0
00C0
00C0
7FC0
7F80
ENDCHAR
STARTCHAR h
ENCODING 104
SWIDTH 600 0
DWIDTH 14 0
BBX 10 17 2 0
BITMAP
C000
C000
C000
C000
C000
CF00
DF80
E0C0
C0C0
C0C0
C0C0
C0C0
C0C0
C0C0
C0C0
C0C0
C0C0
ENDCHAR
STARTCHAR i
ENCODING 105
SWIDTH 600 0
DWIDTH 14 0
BBX 11 17 2 0
BITMAP
0E00
0E00
0E00
0000
0000
FE00
FE00
0600
0600
0600
0600
0600
0600
0600
0600
07E0
03E0
ENDCHAR
STARTCHAR j
ENCODING 106
SWIDTH 600 0
DWIDTH 14 0
BBX 9 22 2 -5
BITMAP
0380
0380
0380
0000
0000
FF00
FF00
0100
0100
0100
0100
0100
0100
0100
0100
0100
0100
0100
0100
0100
FF00
FE00
ENDCHAR
STARTCHAR k
ENCODING 107
SWIDTH 600 0
DWIDTH 14 0
BBX 10 17 3 0
BITMAP
8000
8000
8000
8000
8000
8180
8300
8600
8C00
9800
BC00
EC00
C600
8300
8300
8180
80C0
ENDCHAR
STARTCHAR l
ENCODING 108
SWIDTH 600 0
DWIDTH 14 0
BBX 12 17 1 0
BITMAP
FC00
FC00
0400
0400
0400
0400
0400
0400
0400
0400
0400
0400
0400
0400
0400
07F0
03F0
ENDCHAR
STARTCHAR m
ENCODING 109
SWIDTH 600 0
DWIDTH 14 0
BBX 12 12 1 0
BITMAP
DCE0
FFF0
C630
C610
C610
C610
C610
C610
C610
C610
C610
C610
ENDCHAR
STARTCHAR n
ENCODING 110
SWIDTH 600 0
DWIDTH 14 0
BBX 10 12 2 0
BITMAP
CF00
DF80
E0C0
C0C0
C0C0
C0C0
C0C0
C0C0
C0C0
C0C0
C0C0
C0C0
ENDCHAR
STARTCHAR o
ENCODING 111
SWIDTH 600 0
DWIDTH 14 0
BBX 10 12 2 0
BITMAP
1F00
7F80
60C0
C0C0
C040
C040
C040
C040
C0C0
60C0
7F80
1F00
ENDCHAR
STARTCHAR p
ENCODING 112
SWIDTH 600 0
DWIDTH 14 0
BBX 10 17 2 -5
BITMAP
CF00
DF80
E0C0
C0C0
C040
C040
C040
C0C0
C0C0
E0C0
DF80
CF00
C000
C000
C000
C000
C000
ENDCHAR
STARTCHAR q
ENCODING 113
SWIDTH 600 0
DWIDTH 14 0
BBX 10 17 2 -5
BITMAP
3EC0
7FC0
61C0
C0C0
C0C0
C0C0
C0C0
C0C0
C0C0
61C0
7FC0
3EC0
00C0
00C0
00C0
00C0
00C0
ENDCHAR
STARTCHAR r
ENCODING 114
SWIDTH 600 0
DWIDTH 14 0
BBX 11 12 2 0
BITMAP
FBE0
FFE0
1C00
1800
1800
1800
1800
1800
1800
1800
FF80
FF80
ENDCHAR
STARTCHAR s
ENCODING 115
SWIDTH 600 0
DWIDTH 14 0
BBX 10 12 2 0
BITMAP
3F00
7F80
40C0
C0C0
6000
3E00
0780
00C0
C040
C0C0
7FC0
1F00
ENDCHAR
STARTCHAR t
ENCODING 116
SWIDTH 600 0
DWIDTH 14 0
BBX 11 15 1 0
BITMAP
0C00
0C00
0C00
FFE0
FFE0
0C00
0C00
0C00
0C00
0C00
0C00
0C00
0C00
0FE0
07E0
ENDCHAR
STARTCHAR u
ENCODING 117
SWIDTH 600 0
DWIDTH 14 0
BBX 10 12 2 0
BITMAP
C0C0
C0C0
C0C0
C0C0
C0C0
C0C0
C0C0
C0C0
C0C0
61C0
7FC0
3EC0
ENDCHAR
STARTCHAR v
ENCODING 118
SWIDTH 600 0
DWIDTH 14 0
BBX 11 12 2 0
BITMAP
C060
C0C0
C0C0
60C0
6180
2180
3100
3300
1300
1A00
1E00
0E00
ENDCHAR
STARTCHAR w
ENCODING 119
SWIDTH 600 0
DWIDTH 14 0
BBX 13 12 1 0
BITMAP
8618
C610
C710
CF30
CD30
4930
4930
49A0
79A0
78A0
30E0
30E0
ENDCHAR
STARTCHAR x
ENCODING 120
SWIDTH 600 0
DWIDTH 14 0
BBX 10 12 2 0
BITMAP
C0C0
6180
3180
3300
1E00
0C00
0E00
1B00
3300
6180
60C0
C0C0
ENDCHAR
STARTCHAR y
ENCODING 121
SWIDTH 600 0
DWIDTH 14 0
BBX 11 17 2 -5
BITMAP
C060
C0C0
C0C0
60C0
6180
2180
3180
3300
1300
1A00
1E00
0E00
0400
0C00
0C00
F800
F000
ENDCHAR
STARTCHAR z
ENCODING 122
SWIDTH 600 0
DWIDTH 14 0
BBX 10 12 2 0
BITMAP
7FC0
7FC0
0180
0380
0700
0600
0C00
1800
3000
6000
FFC0
FFC0
ENDCHAR
STARTCHAR braceleft
ENCODING 123
SWIDTH 600 0
DWIDTH 14 0
BBX 10 22 2 -4
BITMAP
03C0
07C0
0400
0400
0400
0400
0400
0400
0C00
0C00
F800
FC00
0C00
0400
0400
0400
0400
0400
0400
0400
07C0
01C0
ENDCHAR
STARTCHAR bar
ENCODING 124
SWIDTH 600 0
DWIDTH 14 0
BBX 2 19 6 -1
BITMAP
C0
C0
C0
C0
C0
C0
C0
C0
C0
C0
C0
C0
C0
C0
C0
C0
C0
C0
C0
ENDCHAR
STARTCHAR braceright
ENCODING 125
SWIDTH 600 0
DWIDTH 14 0
BBX 10 22 2 -4
BITMAP
F800
FC00
0C00
0C00
0C00
0C00
0C00
0C00
0C00
0C00
07C0
07C0
0C00
0C00
0C00
0C00
0C00
0C00
0C00
0C00
F800
F000
ENDCHAR
STARTCHAR asciitilde
ENCODING 126
SWIDTH 600 0
DWIDTH 14 0
BBX 10 4 2 6
BITMAP
7840
FC40
C7C0
C380
ENDCHAR
STARTCHAR exclamdown
ENCODING 161
SWIDTH 600 0
DWIDTH 14 0
BBX 3 17 6 -5
BITMAP
E0
E0
E0
00
00
C0
C0
C0
C0
C0
C0
C0
C0
C0
C0
C0
C0
ENDCHAR
STARTCHAR cent
ENCODING 162
SWIDTH 600 0
DWIDTH 14 0
BBX 10 17 2 0
BITMAP
0C00
0C00
1F00
7F80
60C0
C0C0
C0C0
C000
C000
C000
C000
C0C0
60C0
7F80
1F00
0C00
0C00
ENDCHAR
STARTCHAR sterling
ENCODING 163
SWIDTH 600 0
DWIDTH 14 0
BBX 11 17 2 0
BITMAP
1F00
3F80
60C0
60C0
40C0
60C0
6000
6000
3000
FF00
1000
1000
1000
1000
3000
FFE0
FFE0
ENDCHAR
STARTCHAR currency
ENCODING 164
SWIDTH 600 0
DWIDTH 14 0
BBX 11 12 2 2
BITMAP
8040
DEE0
73C0
6080
C0C0
C040
C040
40C0
6080
73C0
DE60
8000
ENDCHAR
STARTCHAR yen
ENCODING 165
SWIDTH 600 0
DWIDTH 14 0
BBX 12 17 1 0
BITMAP
C030
6030
6060
3060
30C0
18C0
79E0
0D00
0F00
0600
7FE0
0600
0600
0600
0600
0600
0600
ENDCHAR
STARTCHAR brokenbar
ENCODING 166
SWIDTH 600 0
DWIDTH 14 0
BBX 2 19 6 -1
BITMAP
C0
C0
C0
C0
C0
C0
C0
C0
00
00
00
C0
C0
C0
C0
C0
C0
C0
C0
ENDCHAR
STARTCHAR section
ENCODING 167
SWIDTH 600 0
DWIDTH 14 0
BBX 9 17 3 0
BITMAP
3C00
7E00
C300
C300
E000
7800
FE00
8300
8180
C180
7B00
1E00
0300
C300
C300
7F00
3E00
ENDCHAR
STARTCHAR dieresis
ENCODING 168
SWIDTH 600 0
DWIDTH 14 0
BBX 8 3 3 14
BITMAP
E7
E7
E7
ENDCHAR
STARTCHAR copyright
ENCODING 169
SWIDTH 600 0
DWIDTH 14 0
BBX 13 17 1 0
BITMAP
1F80
38E0
6020
C030
C010
8F10
9998
9098
9018
9098
9998
8F10
C010
C030
6020
38E0
1F80
ENDCHAR
STARTCHAR ordfeminine
ENCODING 170
SWIDTH 600 0
DWIDTH 14 0
BBX 9 9 3 8
BITMAP
3C00
6600
C200
0200
1E00
7200
C200
C600
7B80
ENDCHAR
STARTCHAR guillemotleft
ENCODING 171
SWIDTH 600 0
DWIDTH 14 0
BBX 9 9 3 2
BITMAP
3180
3300
6600
C600
CC00
CC00
6600
6300
3300
ENDCHAR
STARTCHAR logicalnot
ENCODING 172
SWIDTH 600 0
DWIDTH 14 0
BBX 10 5 2 4
BITMAP
FFC0
FFC0
0040
0040
0040
ENDCHAR
STARTCHAR registered
ENCODING 174
SWIDTH 600 0
DWIDTH 14 0
BBX 10 10 2 7
BITMAP
1F00
6180
5EC0
9A40
9A40
9E40
9C40
5AC0
6180
1F00
ENDCHAR
STARTCHAR macron
ENCODING 175
SWIDTH 600 0
DWIDTH 14 0
BBX 8 2 3 15
BITMAP
FF
FF
ENDCHAR
STARTCHAR degree
ENCODING 176
SWIDTH 600 0
DWIDTH 14 0
BBX 8 7 3 10
BITMAP
3C
7E
43
C1
C3
63
3E
ENDCHAR
STARTCHAR plusminus
ENCODING 177
SWIDTH 600 0
DWIDTH 14 0
BBX 10 12 2 3
BITMAP
0C00
0C00
0C00
0C00
FFC0
FFC0
0C00
0C00
0C00
0000
FFC0
FFC0
ENDCHAR
STARTCHAR uni00B2
ENCODING 178
SWIDTH 600 0
DWIDTH 14 0
BBX 6 9 4 9
BITMAP
78
CC
C4
04
0C
38
60
C0
FC
ENDCHAR
STARTCHAR uni00B3
ENCODING 179
SWIDTH 600 0
DWIDTH 14 0
BBX 7 9 4 9
BITMAP
7C
CC
C4
0C
38
04
86
C4
7C
ENDCHAR
STARTCHAR acute
ENCODING 180
SWIDTH 600 0
DWIDTH 14 0
BBX 4 4 6 13
BITMAP
30
60
C0
C0
ENDCHAR
STARTCHAR uni00B5
ENCODING 181
SWIDTH 600 0
DWIDTH 14 0
BBX 10 17 2 -5
BITMAP
C0C0
C0C0
C0C0
C0C0
C0C0
C0C0
C0C0
C0C0
C0C0
E1C0
FFC0
DEC0
C000
C000
C000
C000
C000
ENDCHAR
STARTCHAR paragraph
ENCODING 182
SWIDTH 600 0
DWIDTH 14 0
BBX 12 17 1 0
BITMAP
7E70
FE70
FEC0
FEC0
FEC0
FEC0
7EC0
06C0
06C0
06C0
06C0
06C0
06C0
06C0
06C0
06C0
06C0
ENDCHAR
STARTCHAR periodcentered
ENCODING 183
SWIDTH 600 0
DWIDTH 14 0
BBX 3 3 6 7
BITMAP
E0
E0
E0
ENDCHAR
STARTCHAR cedilla
ENCODING 184
SWIDTH 600 0
DWIDTH 14 0
BBX 4 5 5 -5
BITMAP
40
70
F0
10
F0
ENDCHAR
STARTCHAR uni00B9
ENCODING 185
SWIDTH 600 0
DWIDTH 14 0
BBX 6 9 4 9
BITMAP
30
30
F0
30
30
30
30
30
FC
ENDCHAR
STARTCHAR ordmasculine
ENCODING 186
SWIDTH 600 0
DWIDTH 14 0
BBX 8 9 3 8
BITMAP
3C
76
43
C3
C3
C3
43
62
3E
ENDCHAR
STARTCHAR guillemotright
ENCODING 187
SWIDTH 600 0
DWIDTH 14 0
BBX 9 9 3 2
BITMAP
CC00
C600
6600
3300
3180
3300
6300
6600
CC00
ENDCHAR
STARTCHAR onequarter
ENCODING 188
SWIDTH 600 0
DWIDTH 14 0
BBX 13 17 1 0
BITMAP
2030
2020
E060
2040
20C0
2000
2000
2000
F870
00F0
00B0
01B0
1330
3330
63F8
4030
C030
ENDCHAR
STARTCHAR onehalf
ENCODING 189
SWIDTH 600 0
DWIDTH 14 0
BBX 13 17 1 0
BITMAP
2030
2020
E060
2040
20C0
2000
2000
2000
F8F0
0198
0118
0018
1030
30E0
6180
4100
C1F8
ENDCHAR
STARTCHAR threequarters
ENCODING 190
SWIDTH 600 0
DWIDTH 14 0
BBX 14 17 0 0
BITMAP
3C18
6410
4630
0420
1860
0400
C600
4600
7C38
0078
0058
00D8
0898
1998
11FC
2018
6018
ENDCHAR
STARTCHAR questiondown
ENCODING 191
SWIDTH 600 0
DWIDTH 14 0
BBX 10 17 2 -5
BITMAP
0E00
0E00
0E00
0000
0000
0C00
0C00
0C00
1C00
3800
7000
60C0
C0C0
C0C0
6180
7F80
1F00
ENDCHAR
STARTCHAR Agrave
ENCODING 192
SWIDTH 600 0
DWIDTH 14 0
BBX 12 22 1 0
BITMAP
1C00
0E00
0700
0000
0000
0700
0F00
0D00
0D80
0980
1980
1880
18C0
30C0
30C0
3FE0
3FE0
6060
6060
6030
4030
C030
ENDCHAR
STARTCHAR Aacute
ENCODING 193
SWIDTH 600 0
DWIDTH 14 0
BBX 12 22 1 0
BITMAP
0180
0300
0600
0000
0000
0700
0F00
0D00
0D80
0980
1980
1880
18C0
30C0
30C0
3FE0
3FE0
6060
6060
6030
4030
C030
ENDCHAR
STARTCHAR Acircumflex
ENCODING 194
SWIDTH 600 0
DWIDTH 14 0
BBX 12 22 1 0
BITMAP
0600
0F00
1980
0040
0000
0700
0F00
0D00
0D80
0980
1980
1880
18C0
30C0
30C0
3FE0
3FE0
6060
6060
6030
4030
C030
ENDCHAR
STARTCHAR Atilde
ENCODING 195
SWIDTH 600 0
DWIDTH 14 0
BBX 12 22 1 0
BITMAP
1C40
3FC0
33C0
0000
0000
0700
0F00
0D00
0D80
0980
1980
1880
18C0
30C0
30C0
3FE0
3FE0
6060
6060
6030
4030
C030
ENDCHAR
STARTCHAR Adieresis
ENCODING 196
SWIDTH 600 0
DWIDTH 14 0
BBX 12 22 1 0
BITMAP
39C0
39C0
39C0
0000
0000
0700
0F00
0D00
0D80
0980
1980
1880
18C0
30C0
30C0
3FE0
3FE0
6060
6060
6030
4030
C030
ENDCHAR
STARTCHAR Aring
ENCODING 197
SWIDTH 600 0
DWIDTH 14 0
BBX 12 24 1 0
BITMAP
0700
0F80
1880
1880
0D80
0700
0000
0700
0F00
0D00
0D80
0980
1980
1880
18C0
30C0
30C0
3FE0
3FE0
6060
6060
6030
4030
C030
ENDCHAR
STARTCHAR AE
ENCODING 198
SWIDTH 600 0
DWIDTH 14 0
BBX 12 17 1 0
BITMAP
0FF0
1FF0
1B00
1300
1300
3300
3300
33F0
23F0
2300
7F00
7F00
6300
4300
C300
C3F0
C3F0
ENDCHAR
STARTCHAR Ccedilla
ENCODING 199
SWIDTH 600 0
DWIDTH 14 0
BBX 11 22 2 -5
BITMAP
3F00
7F80
E0C0
C0C0
C060
C060
C000
C000
C000
C000
C000
C060
C060
C0C0
C0C0
7F80
3F00
0800
0E00
0A00
0200
1E00
ENDCHAR
STARTCHAR Egrave
ENCODING 200
SWIDTH 600 0
DWIDTH 14 0
BBX 10 22 3 0
BITMAP
7000
3800
0C00
0000
0000
FFC0
FFC0
8000
8000
8000
8000
8000
FF00
FF00
8000
8000
8000
8000
8000
8000
FFC0
FFC0
ENDCHAR
STARTCHAR Eacute
ENCODING 201
SWIDTH 600 0
DWIDTH 14 0
BBX 10 22 3 0
BITMAP
0700
0E00
1800
0000
0000
FFC0
FFC0
8000
8000
8000
8000
8000
FF00
FF00
8000
8000
8000
8000
8000
8000
FFC0
FFC0
ENDCHAR
STARTCHAR Ecircumflex
ENCODING 202
SWIDTH 600 0
DWIDTH 14 0
BBX 10 22 3 0
BITMAP
1C00
3E00
7700
0000
0000
FFC0
FFC0
8000
8000
8000
8000
8000
FF00
FF00
8000
8000
8000
8000
8000
8000
FFC0
FFC0
ENDCHAR
STARTCHAR Edieresis
ENCODING 203
SWIDTH 600 0
DWIDTH 14 0
BBX 10 22 3 0
BITMAP
7300
7300
7300
0000
0000
FFC0
FFC0
8000
8000
8000
8000
8000
FF00
FF00
8000
8000
8000
8000
8000
8000
FFC0
FFC0
ENDCHAR
STARTCHAR Igrave
ENCODING 204
SWIDTH 600 0
DWIDTH 14 0
BBX 10 22 2 0
BITMAP
3800
1C00
0E00
0000
0000
FFC0
FFC0
0C00
0C00
0C00
0C00
0C00
0C00
0C00
0C00
0C00
0C00
0C00
0C00
0C00
FFC0
FFC0
ENDCHAR
STARTCHAR Iacute
ENCODING 205
SWIDTH 600 0
DWIDTH 14 0
BBX 10 22 2 0
BITMAP
0300
0600
0C00
0000
0000
FFC0
FFC0
0C00
0C00
0C00
0C00
0C00
0C00
0C00
0C00
0C00
0C00
0C00
0C00
0C00
FFC0
FFC0
ENDCHAR
STARTCHAR Icircumflex
ENCODING 206
SWIDTH 600 0
DWIDTH 14 0
BBX 10 22 2 0
BITMAP
0C00
1E00
3300
0000
0000
FFC0
FFC0
0C00
0C00
0C00
0C00
0C00
0C00
0C00
0C00
0C00
0C00
0C00
0C00
0C00
FFC0
FFC0
ENDCHAR
STARTCHAR Idieresis
ENCODING 207
SWIDTH 600 0
DWIDTH 14 0
BBX 10 22 2 0
BITMAP
3380
3380
3380
0000
0000
FFC0
FFC0
0C00
0C00
0C00
0C00
0C00
0C00
0C00
0C00
0C00
0C00
0C00
0C00
0C00
FFC0
FFC0
ENDCHAR
STARTCHAR Eth
ENCODING 208
SWIDTH 600 0
DWIDTH 14 0
BBX 13 17 0 0
BITMAP
3FC0
3FE0
3030
3030
3010
3018
3018
3018
FE18
FE18
3018
3018
3018
3030
3030
3FE0
3FC0
ENDCHAR
STARTCHAR Ntilde
ENCODING 209
SWIDTH 600 0
DWIDTH 14 0
BBX 10 22 2 0
BITMAP
3880
7F80
6780
0000
0000
E0C0
E0C0
F0C0
F0C0
D8C0
D8C0
C8C0
CCC0
CCC0
C4C0
C6C0
C6C0
C3C0
C3C0
C1C0
C1C0
C1C0
ENDCHAR
STARTCHAR Ograve
ENCODING 210
SWIDTH 600 0
DWIDTH 14 0
BBX 11 21 2 0
BITMAP
3800
0C00
0600
0000
3F00
7F80
E0C0
C0C0
C060
C060
C060
C060
C060
C060
C060
C060
C060
C0C0
E0C0
7F80
3F00
ENDCHAR
STARTCHAR Oacute
ENCODING 211
SWIDTH 600 0
DWIDTH 14 0
BBX 11 21 2 0
BITMAP
0700
0E00
1C00
0000
3F00
7F80
E0C0
C0C0
C060
C060
C060
C060
C060
C060
C060
C060
C060
C0C0
E0C0
7F80
3F00
ENDCHAR
STARTCHAR Ocircumflex
ENCODING 212
SWIDTH 600 0
DWIDTH 14 0
BBX 11 21 2 0
BITMAP
0E00
1F00
3180
0000
3F00
7F80
E0C0
C0C0
C060
C060
C060
C060
C060
C060
C060
C060
C060
C0C0
E0C0
7F80
3F00
ENDCHAR
STARTCHAR Otilde
ENCODING 213
SWIDTH 600 0
DWIDTH 14 0
BBX 11 22 2 0
BITMAP
1000
7C80
6780
0100
0000
3F00
7F80
E0C0
C0C0
C060
C060
C060
C060
C060
C060
C060
C060
C060
C0C0
E0C0
7F80
3F00
ENDCHAR
STARTCHAR Odieresis
ENCODING 214
SWIDTH 600 0
DWIDTH 14 0
BBX 11 21 2 0
BITMAP
7380
7380
7380
0000
3F00
7F80
E0C0
C0C0
C060
C060
C060
C060
C060
C060
C060
C060
C060
C0C0
E0C0
7F80
3F00
ENDCHAR
STARTCHAR multiply
ENCODING 215
SWIDTH 600 0
DWIDTH 14 0
BBX 8 9 3 3
BITMAP
81
C3
66
3C
18
3C
66
C3
81
ENDCHAR
STARTCHAR Oslash
ENCODING 216
SWIDTH 600 0
DWIDTH 14 0
BBX 11 17 2 0
BITMAP
3F60
7FC0
E0C0
C1C0
C160
C360
C260
C660
CC60
C860
D860
D060
F060
E0C0
E0C0
FF80
BF00
ENDCHAR
STARTCHAR Ugrave
ENCODING 217
SWIDTH 600 0
DWIDTH 14 0
BBX 10 22 2 0
BITMAP
3800
1C00
0E00
0000
0000
C040
C040
C040
C040
C040
C040
C040
C040
C040
C040
C040
C040
C0C0
C0C0
60C0
7F80
1F00
ENDCHAR
STARTCHAR Uacute
ENCODING 218
SWIDTH 600 0
DWIDTH 14 0
BBX 10 22 2 0
BITMAP
0300
0600
0C00
0000
0000
C040
C040
C040
C040
C040
C040
C040
C040
C040
C040
C040
C040
C0C0
C0C0
60C0
7F80
1F00
ENDCHAR
STARTCHAR Ucircumflex
ENCODING 219
SWIDTH 600 0
DWIDTH 14 0
BBX 10 22 2 0
BITMAP
0C00
1E00
3300
0080
0000
C040
C040
C040
C040
C040
C040
C040
C040
C040
C040
C040
C040
C0C0
C0C0
60C0
7F80
1F00
ENDCHAR
STARTCHAR Udieresis
ENCODING 220
SWIDTH 600 0
DWIDTH 14 0
BBX 10 22 2 0
BITMAP
7380
7380
7380
0000
0000
C040
C040
C040
C040
C040
C040
C040
C040
C040
C040
C040
C040
C0C0
C0C0
60C0
7F80
1F00
ENDCHAR
STARTCHAR Yacute
ENCODING 221
SWIDTH 600 0
DWIDTH 14 0
BBX 12 22 1 0
BITMAP
0180
0300
0600
0000
0000
C030
6030
6060
3060
30C0
1880
1980
0D00
0700
0600
0600
0600
0600
0600
0600
0600
0600
ENDCHAR
STARTCHAR Thorn
ENCODING 222
SWIDTH 600 0
DWIDTH 14 0
BBX 11 17 2 0
BITMAP
C000
C000
C000
FF00
FFC0
C0C0
C060
C060
C060
C060
C060
C0C0
FFC0
FF00
C000
C000
C000
ENDCHAR
STARTCHAR germandbls
ENCODING 223
SWIDTH 600 0
DWIDTH 14 0
BBX 11 17 2 0
BITMAP
3E00
7F80
6180
C080
C080
C080
C180
CF00
CF80
C0C0
C060
C060
C060
C060
C0C0
CFC0
CF00
ENDCHAR
STARTCHAR agrave
ENCODING 224
SWIDTH 600 0
DWIDTH 14 0
BBX 12 17 2 0
BITMAP
3000
1800
0C00
0E00
0000
3E00
7F80
E180
C080
0080
0380
7F80
C080
8180
8280
FEF0
78F0
ENDCHAR
STARTCHAR aacute
ENCODING 225
SWIDTH 600 0
DWIDTH 14 0
BBX 12 17 2 0
BITMAP
0700
0600
0C00
1800
0000
3E00
7F80
E180
C080
0080
0380
7F80
C080
8180
8280
FEF0
78F0
ENDCHAR
STARTCHAR acircumflex
ENCODING 226
SWIDTH 600 0
DWIDTH 14 0
BBX 12 17 2 0
BITMAP
0C00
1E00
3300
6300
0000
3E00
7F80
E180
C080
0080
0380
7F80
C080
8180
8280
FEF0
78F0
ENDCHAR
STARTCHAR atilde
ENCODING 227
SWIDTH 600 0
DWIDTH 14 0
BBX 12 17 2 0
BITMAP
3980
7D80
4780
0200
0000
3E00
7F80
E180
C080
0080
0380
7F80
C080
8180
8280
FEF0
78F0
ENDCHAR
STARTCHAR adieresis
ENCODING 228
SWIDTH 600 0
DWIDTH 14 0
BBX 12 17 2 0
BITMAP
7380
7380
7380
0000
0000
3E00
7F80
E180
C080
0080
0780
7F80
C080
8180
8280
FEF0
78F0
ENDCHAR
STARTCHAR aring
ENCODING 229
SWIDTH 600 0
DWIDTH 14 0
BBX 12 19 2 0
BITMAP
1E00
3300
2300
3300
1E00
0000
0000
3E00
7F80
E180
C080
0080
0780
7F80
C080
8180
8280
FEF0
78F0
ENDCHAR
STARTCHAR ae
ENCODING 230
SWIDTH 600 0
DWIDTH 14 0
BBX 13 12 1 0
BITMAP
79E0
7DF0
C710
C618
0618
1FF8
7E00
C600
8618
8710
F9F0
71E0
ENDCHAR
STARTCHAR ccedilla
ENCODING 231
SWIDTH 600 0
DWIDTH 14 0
BBX 10 17 2 -5
BITMAP
1F00
7F80
60C0
C0C0
C000
C000
C000
C000
C0C0
60C0
7F80
1F00
0800
0E00
0300
0200
1E00
ENDCHAR
STARTCHAR egrave
ENCODING 232
SWIDTH 600 0
DWIDTH 14 0
BBX 10 17 2 0
BITMAP
3800
1800
0C00
0600
0000
1F00
7F80
60C0
C0C0
C040
FFC0
C000
C000
C0C0
60C0
7F80
1F00
ENDCHAR
STARTCHAR eacute
ENCODING 233
SWIDTH 600 0
DWIDTH 14 0
BBX 10 17 2 0
BITMAP
0300
0600
0C00
0C00
0000
1F00
7F80
60C0
C0C0
C040
FFC0
C000
C000
C0C0
60C0
7F80
1F00
ENDCHAR
STARTCHAR ecircumflex
ENCODING 234
SWIDTH 600 0
DWIDTH 14 0
BBX 10 17 2 0
BITMAP
0C00
1E00
3B00
3180
0000
1F00
7F80
60C0
C0C0
C040
FFC0
C000
C000
C0C0
60C0
7F80
1F00
ENDCHAR
STARTCHAR edieresis
ENCODING 235
SWIDTH 600 0
DWIDTH 14 0
BBX 10 17 2 0
BITMAP
7380
7380
7380
0000
0000
1F00
7F80
60C0
C0C0
C040
FFC0
C000
C000
C0C0
60C0
7F80
1F00
ENDCHAR
STARTCHAR igrave
ENCODING 236
SWIDTH 600 0
DWIDTH 14 0
BBX 11 18 2 0
BITMAP
1800
0C00
0E00
0600
0000
0000
FE00
FE00
0600
0600
0600
0600
0600
0600
0600
0600
07E0
03E0
ENDCHAR
STARTCHAR iacute
ENCODING 237
SWIDTH 600 0
DWIDTH 14 0
BBX 11 18 2 0
BITMAP
0380
0300
0600
0C00
0000
0000
FE00
FE00
0600
0600
0600
0600
0600
0600
0600
0600
07E0
03E0
ENDCHAR
STARTCHAR icircumflex
ENCODING 238
SWIDTH 600 0
DWIDTH 14 0
BBX 11 18 2 0
BITMAP
0600
0F00
1B80
3180
0000
0000
FE00
FE00
0600
0600
0600
0600
0600
0600
0600
0600
07E0
03E0
ENDCHAR
STARTCHAR idieresis
ENCODING 239
SWIDTH 600 0
DWIDTH 14 0
BBX 11 17 2 0
BITMAP
39C0
39C0
39C0
0000
0000
FE00
FE00
0600
0600
0600
0600
0600
0600
0600
0600
07E0
03E0
ENDCHAR
STARTCHAR eth
ENCODING 240
SWIDTH 600 0
DWIDTH 14 0
BBX 10 17 2 0
BITMAP
0800
0E00
0740
03C0
0780
0080
00C0
3EC0
7FC0
C0C0
C0C0
C040
C040
C0C0
C0C0
7F80
3F00
ENDCHAR
STARTCHAR ntilde
ENCODING 241
SWIDTH 600 0
DWIDTH 14 0
BBX 10 17 2 0
BITMAP
3880
7C80
6780
0100
0000
CF00
DF80
E0C0
C0C0
C0C0
C0C0
C0C0
C0C0
C0C0
C0C0
C0C0
C0C0
ENDCHAR
STARTCHAR ograve
ENCODING 242
SWIDTH 600 0
DWIDTH 14 0
BBX 10 17 2 0
BITMAP
3800
1800
0C00
0600
0000
1F00
7F80
60C0
C0C0
C040
C040
C040
C040
C0C0
60C0
7F80
1F00
ENDCHAR
STARTCHAR oacute
ENCODING 243
SWIDTH 600 0
DWIDTH 14 0
BBX 10 17 2 0
BITMAP
0300
0600
0C00
0C00
0000
1F00
7F80
60C0
C0C0
C040
C040
C040
C040
C0C0
60C0
7F80
1F00
ENDCHAR
STARTCHAR ocircumflex
ENCODING 244
SWIDTH 600 0
DWIDTH 14 0
BBX 10 17 2 0
BITMAP
0C00
1E00
3B00
3180
0000
1F00
7F80
60C0
C0C0
C040
C040
C040
C040
C0C0
60C0
7F80
1F00
ENDCHAR
STARTCHAR otilde
ENCODING 245
SWIDTH 600 0
DWIDTH 14 0
BBX 10 17 2 0
BITMAP
3880
7C80
6780
0100
0000
1F00
7F80
60C0
C0C0
C040
C040
C040
C040
C0C0
60C0
7F80
1F00
ENDCHAR
STARTCHAR odieresis
ENCODING 246
SWIDTH 600 0
DWIDTH 14 0
BBX 10 17 2 0
BITMAP
7380
7380
7380
0000
0000
1F00
7F80
60C0
C0C0
C040
C040
C040
C040
C0C0
60C0
7F80
1F00
ENDCHAR
STARTCHAR divide
ENCODING 247
SWIDTH 600 0
DWIDTH 14 0
BBX 10 12 2 2
BITMAP
0E00
0E00
0E00
0000
0000
FFC0
FFC0
0000
0000
0E00
0E00
0E00
ENDCHAR
STARTCHAR oslash
ENCODING 248
SWIDTH 600 0
DWIDTH 14 0
BBX 10 12 2 0
BITMAP
1FC0
7F80
61C0
C3C0
C240
C440
CC40
D840
D0C0
60C0
7F80
5F00
ENDCHAR
STARTCHAR ugrave
ENCODING 249
SWIDTH 600 0
DWIDTH 14 0
BBX 10 18 2 0
BITMAP
3800
1800
0C00
0600
0000
0000
C0C0
C0C0
C0C0
C0C0
C0C0
C0C0
C0C0
C0C0
C0C0
61C0
7FC0
3EC0
ENDCHAR
STARTCHAR uacute
ENCODING 250
SWIDTH 600 0
DWIDTH 14 0
BBX 10 18 2 0
BITMAP
0300
0600
0E00
0C00
0000
0000
C0C0
C0C0
C0C0
C0C0
C0C0
C0C0
C0C0
C0C0
C0C0
61C0
7FC0
3EC0
ENDCHAR
STARTCHAR ucircumflex
ENCODING 251
SWIDTH 600 0
DWIDTH 14 0
BBX 10 18 2 0
BITMAP
0C00
1E00
3B00
3380
0000
0000
C0C0
C0C0
C0C0
C0C0
C0C0
C0C0
C0C0
C0C0
C0C0
61C0
7FC0
3EC0
ENDCHAR
STARTCHAR udieresis
ENCODING 252
SWIDTH 600 0
DWIDTH 14 0
BBX 10 17 2 0
BITMAP
7380
7380
7380
0000
0000
C0C0
C0C0
C0C0
C0C0
C0C0
C0C0
C0C0
C0C0
C0C0
61C0
7FC0
3EC0
ENDCHAR
STARTCHAR yacute
ENCODING 253
SWIDTH 600 0
DWIDTH 14 0
BBX 11 23 2 -5
BITMAP
0300
0600
0E00
0C00
0000
0000
C060
C0C0
C0C0
60C0
6180
2180
3180
3300
1300
1A00
1E00
0E00
0400
0C00
0C00
F800
F000
ENDCHAR
STARTCHAR thorn
ENCODING 254
SWIDTH 600 0
DWIDTH 14 0
BBX 10 22 2 -5
BITMAP
C000
C000
C000
C000
C000
CF00
DF80
E0C0
C0C0
C040
C040
C040
C0C0
C0C0
E0C0
DF80
CF00
C000
C000
C000
C000
C000
ENDCHAR
STARTCHAR ydieresis
ENCODING 255
SWIDTH 600 0
DWIDTH 14 0
BBX 11 22 2 -5
BITMAP
7380
7380
7380
0000
0000
C060
C0C0
C0C0
60C0
6180
2180
3180
3300
1300
1A00
1E00
0E00
0400
0C00
0C00
F800
F000
ENDCHAR
STARTCHAR Amacron
ENCODING 256
SWIDTH 600 0
DWIDTH 14 0
BBX 12 21 1 0
BITMAP
3FC0
3FC0
0000
0000
0700
0F00
0D00
0D80
0980
1980
1880
18C0
30C0
30C0
3FE0
3FE0
6060
6060
6030
4030
C030
ENDCHAR
STARTCHAR amacron
ENCODING 257
SWIDTH 600 0
DWIDTH 14 0
BBX 12 17 2 0
BITMAP
7F80
7F80
0000
0000
0000
3E00
7F80
E180
C080
0080
0380
7F80
C080
8180
8280
FEF0
78F0
ENDCHAR
STARTCHAR Abreve
ENCODING 258
SWIDTH 600 0
DWIDTH 14 0
BBX 12 22 1 0
BITMAP
10C0
1880
0F80
0200
0000
0700
0F00
0D00
0D80
0980
1980
1880
18C0
30C0
30C0
3FE0
3FE0
6060
6060
6030
4030
C030
ENDCHAR
STARTCHAR abreve
ENCODING 259
SWIDTH 600 0
DWIDTH 14 0
BBX 12 17 2 0
BITMAP
6100
2300
3E00
0000
0000
3E00
7F80
E180
C080
0080
0780
7F80
C080
8180
8280
FEF0
78F0
ENDCHAR
STARTCHAR Aogonek
ENCODING 260
SWIDTH 600 0
DWIDTH 14 0
BBX 12 22 1 -5
BITMAP
0700
0F00
0D00
0D80
0980
1980
1880
18C0
30C0
30C0
3FE0
3FE0
6060
6060
6030
4030
C030
0030
0040
00C0
00F0
0070
ENDCHAR
STARTCHAR aogonek
ENCODING 261
SWIDTH 600 0
DWIDTH 14 0
BBX 12 17 2 -5
BITMAP
3E00
7F80
E180
C080
0080
0380
7F80
C080
8180
8280
FEF0
78F0
0060
00C0
0080
01F0
00F0
ENDCHAR
STARTCHAR Cacute
ENCODING 262
SWIDTH 600 0
DWIDTH 14 0
BBX 11 21 2 0
BITMAP
0700
0E00
1C00
0000
3F00
7F80
E0C0
C0C0
C060
C060
C000
C000
C000
C000
C000
C060
C060
C0C0
E0C0
7F80
3F00
ENDCHAR
STARTCHAR cacute
ENCODING 263
SWIDTH 600 0
DWIDTH 14 0
BBX 10 17 2 0
BITMAP
0300
0600
0E00
0C00
0000
1F00
7F80
60C0
C0C0
C000
C000
C000
C000
C0C0
60C0
7F80
1F00
ENDCHAR
STARTCHAR Ccircumflex
ENCODING 264
SWIDTH 600 0
DWIDTH 14 0
BBX 11 21 2 0
BITMAP
0E00
1F00
3180
0000
3F00
7F80
E0C0
C0C0
C060
C060
C000
C000
C000
C000
C000
C060
C060
C0C0
E0C0
7F80
3F00
ENDCHAR
STARTCHAR ccircumflex
ENCODING 265
SWIDTH 600 0
DWIDTH 14 0
BBX 10 17 2 0
BITMAP
0E00
1E00
3B00
3180
0000
1F00
7F80
60C0
C0C0
C000
C000
C000
C000
C0C0
60C0
7F80
1F00
ENDCHAR
STARTCHAR Cdotaccent
ENCODING 266
SWIDTH 600 0
DWIDTH 14 0
BBX 11 21 2 0
BITMAP
0E00
0E00
0E00
0000
3F00
7F80
E0C0
C0C0
C060
C060
C000
C000
C000
C000
C000
C060
C060
C0C0
E0C0
7F80
3F00
ENDCHAR
STARTCHAR cdotaccent
ENCODING 267
SWIDTH 600 0
DWIDTH 14 0
BBX 10 17 2 0
BITMAP
0E00
0E00
0E00
0000
0000
1F00
7F80
60C0
C0C0
C000
C000
C000
C000
C0C0
60C0
7F80
1F00
ENDCHAR
STARTCHAR Ccaron
ENCODING 268
SWIDTH 600 0
DWIDTH 14 0
BBX 11 21 2 0
BITMAP
3300
1E00
0C00
0000
3F00
7F80
E0C0
C0C0
C060
C060
C000
C000
C000
C000
C000
C060
C060
C0C0
E0C0
7F80
3F00
ENDCHAR
STARTCHAR ccaron
ENCODING 269
SWIDTH 600 0
DWIDTH 14 0
BBX 10 17 2 0
BITMAP
3180
1B00
1E00
0C00
0000
1F00
7F80
60C0
C0C0
C000
C000
C000
C000
C0C0
60C0
7F80
1F00
ENDCHAR
STARTCHAR Dcaron
ENCODING 270
SWIDTH 600 0
DWIDTH 14 0
BBX 11 21 2 0
BITMAP
3300
1E00
0C00
0000
FF00
FF80
C0C0
C0C0
C060
C060
C060
C060
C060
C060
C060
C060
C060
C0C0
C0C0
FF80
FF00
ENDCHAR
STARTCHAR dcaron
ENCODING 271
SWIDTH 600 0
DWIDTH 14 0
BBX 13 17 1 0
BITMAP
00D8
00D8
00C8
00C8
00D8
3CC0
7FC0
61C0
C0C0
C0C0
C0C0
C0C0
C0C0
C0C0
61C0
7FC0
3EC0
ENDCHAR
STARTCHAR Dcroat
ENCODING 272
SWIDTH 600 0
DWIDTH 14 0
BBX 13 17 0 0
BITMAP
3FC0
3FE0
3030
3030
3010
3018
3018
3018
FE18
FE18
3018
3018
3018
3030
3030
3FE0
3FC0
ENDCHAR
STARTCHAR dcroat
ENCODING 273
SWIDTH 600 0
DWIDTH 14 0
BBX 12 17 2 0
BITMAP
00C0
00C0
07F0
07F0
00C0
3EC0
7FC0
61C0
C0C0
C0C0
C0C0
C0C0
C0C0
C0C0
61C0
7FC0
3EC0
ENDCHAR
STARTCHAR Emacron
ENCODING 274
SWIDTH 600 0
DWIDTH 14 0
BBX 10 21 3 0
BITMAP
7F00
7F00
0000
0000
FFC0
FFC0
8000
8000
8000
8000
8000
FF00
FF00
8000
8000
8000
8000
8000
8000
FFC0
FFC0
ENDCHAR
STARTCHAR emacron
ENCODING 275
SWIDTH 600 0
DWIDTH 14 0
BBX 10 17 2 0
BITMAP
7F80
7F80
0000
0000
0000
1F00
7F80
60C0
C0C0
C040
FFC0
C000
C000
C0C0
60C0
7F80
1F00
ENDCHAR
STARTCHAR Ebreve
ENCODING 276
SWIDTH 600 0
DWIDTH 14 0
BBX 10 22 3 0
BITMAP
6300
6300
3E00
0800
0000
FFC0
FFC0
8000
8000
8000
8000
8000
FF00
FF00
8000
8000
8000
8000
8000
8000
FFC0
FFC0
ENDCHAR
STARTCHAR ebreve
ENCODING 277
SWIDTH 600 0
DWIDTH 14 0
BBX 10 17 2 0
BITMAP
2180
3100
1F00
0400
0000
1F00
7F80
60C0
C0C0
C040
FFC0
C000
C000
C0C0
60C0
7F80
1F00
ENDCHAR
STARTCHAR Edotaccent
ENCODING 278
SWIDTH 600 0
DWIDTH 14 0
BBX 10 22 3 0
BITMAP
1C00
1C00
1C00
0000
0000
FFC0
FFC0
8000
8000
8000
8000
8000
FF00
FF00
8000
8000
8000
8000
8000
8000
FFC0
FFC0
ENDCHAR
STARTCHAR edotaccent
ENCODING 279
SWIDTH 600 0
DWIDTH 14 0
BBX 10 17 2 0
BITMAP
0E00
0E00
0E00
0000
0000
1F00
7F80
60C0
C0C0
C040
FFC0
C000
C000
C0C0
60C0
7F80
1F00
ENDCHAR
STARTCHAR Eogonek
ENCODING 280
SWIDTH 600 0
DWIDTH 14 0
BBX 10 22 3 -5
BITMAP
FFC0
FFC0
8000
8000
8000
8000
8000
FF00
FF00
8000
8000
8000
8000
8000
8000
FFC0
FFC0
0180
0300
0200
03C0
03C0
ENDCHAR
STARTCHAR eogonek
ENCODING 281
SWIDTH 600 0
DWIDTH 14 0
BBX 10 16 2 -4
BITMAP
1F00
7F80
60C0
C0C0
C040
FFC0
C000
C000
C0C0
60C0
7F80
1F00
0C00
0800
0F00
0F00
ENDCHAR
STARTCHAR Ecaron
ENCODING 282
SWIDTH 600 0
DWIDTH 14 0
BBX 10 21 3 0
BITMAP
7700
3E00
0C00
0000
FFC0
FFC0
8000
8000
8000
8000
8000
FF00
FF00
8000
8000
8000
8000
8000
8000
FFC0
FFC0
ENDCHAR
STARTCHAR ecaron
ENCODING 283
SWIDTH 600 0
DWIDTH 14 0
BBX 10 17 2 0
BITMAP
3180
1B00
1E00
0C00
0000
1F00
7F80
60C0
C0C0
C040
FFC0
C000
C000
C0C0
60C0
7F80
1F00
ENDCHAR
STARTCHAR Gcircumflex
ENCODING 284
SWIDTH 600 0
DWIDTH 14 0
BBX 11 21 2 0
BITMAP
0E00
1F00
3180
0000
3F00
7F80
E0C0
C0C0
C060
C060
C000
C000
C000
C3E0
C3E0
C060
C060
C0E0
E0E0
7F60
3E60
ENDCHAR
STARTCHAR gcircumflex
ENCODING 285
SWIDTH 600 0
DWIDTH 14 0
BBX 10 22 2 -5
BITMAP
0C00
1E00
3B00
3180
0000
3EC0
7FC0
61C0
C0C0
C0C0
C0C0
C0C0
C0C0
C0C0
61C0
7FC0
3EC0
00C0
00C0
00C0
7FC0
7F80
ENDCHAR
STARTCHAR Gbreve
ENCODING 286
SWIDTH 600 0
DWIDTH 14 0
BBX 11 21 2 0
BITMAP
2180
3F00
1E00
0000
3F00
7F80
E0C0
C0C0
C060
C060
C000
C000
C000
C3E0
C3E0
C060
C060
C0E0
E0E0
7F60
3E60
ENDCHAR
STARTCHAR gbreve
ENCODING 287
SWIDTH 600 0
DWIDTH 14 0
BBX 10 22 2 -5
BITMAP
2180
3100
1F00
0400
0000
3EC0
7FC0
61C0
C0C0
C0C0
C0C0
C0C0
C0C0
C0C0
61C0
7FC0
3EC0
00C0
00C0
00C0
7FC0
7F80
ENDCHAR
STARTCHAR Gdotaccent
ENCODING 288
SWIDTH 600 0
DWIDTH 14 0
BBX 11 21 2 0
BITMAP
0E00
0E00
0E00
0000
3F00
7F80
E0C0
C0C0
C060
C060
C000
C000
C000
C3E0
C3E0
C060
C060
C0E0
E0E0
7F60
3E60
ENDCHAR
STARTCHAR gdotaccent
ENCODING 289
SWIDTH 600 0
DWIDTH 14 0
BBX 10 22 2 -5
BITMAP
0E00
0E00
0E00
0000
0000
3EC0
7FC0
61C0
C0C0
C0C0
C0C0
C0C0
C0C0
C0C0
61C0
7FC0
3EC0
00C0
00C0
00C0
7FC0
7F80
ENDCHAR
STARTCHAR uni0122
ENCODING 290
SWIDTH 600 0
DWIDTH 14 0
BBX 11 23 2 -6
BITMAP
3F00
7F80
E0C0
C0C0
C060
C060
C000
C000
C000
C3E0
C3E0
C060
C060
C0E0
E0E0
7F60
3E60
0000
0E00
0E00
0400
0400
0C00
ENDCHAR
STARTCHAR uni0123
ENCODING 291
SWIDTH 600 0
DWIDTH 14 0
BBX 10 23 2 -5
BITMAP
0400
0C00
0C00
0C00
0000
0000
3EC0
7FC0
61C0
C0C0
C0C0
C0C0
C0C0
C0C0
C0C0
61C0
7FC0
3EC0
00C0
00C0
00C0
7FC0
7F80
ENDCHAR
STARTCHAR Hcircumflex
ENCODING 292
SWIDTH 600 0
DWIDTH 14 0
BBX 10 22 2 0
BITMAP
0C00
1E00
3300
0000
0000
C040
C040
C040
C040
C040
C040
C040
C040
FFC0
FFC0
C040
C040
C040
C040
C040
C040
C040
ENDCHAR
STARTCHAR hcircumflex
ENCODING 293
SWIDTH 600 0
DWIDTH 14 0
BBX 12 22 0 0
BITMAP
3000
7800
CC00
0200
0000
3000
3000
3000
3000
3000
33C0
37E0
3830
3030
3030
3030
3030
3030
3030
3030
3030
3030
ENDCHAR
STARTCHAR Hbar
ENCODING 294
SWIDTH 600 0
DWIDTH 14 0
BBX 13 17 1 0
BITMAP
6020
6020
6020
FFF8
FFF8
6020
6020
7FE0
7FE0
6020
6020
6020
6020
6020
6020
6020
6020
ENDCHAR
STARTCHAR hbar
ENCODING 295
SWIDTH 600 0
DWIDTH 14 0
BBX 12 17 0 0
BITMAP
3000
3000
FF00
FF00
3000
33C0
37E0
3830
3030
3030
3030
3030
3030
3030
3030
3030
3030
ENDCHAR
STARTCHAR Itilde
ENCODING 296
SWIDTH 600 0
DWIDTH 14 0
BBX 10 22 2 0
BITMAP
3880
7F80
6780
0000
0000
FFC0
FFC0
0C00
0C00
0C00
0C00
0C00
0C00
0C00
0C00
0C00
0C00
0C00
0C00
0C00
FFC0
FFC0
ENDCHAR
STARTCHAR itilde
ENCODING 297
SWIDTH 600 0
DWIDTH 14 0
BBX 11 17 2 0
BITMAP
1CC0
3EC0
27C0
0100
0000
FE00
FE00
0600
0600
0600
0600
0600
0600
0600
0600
07E0
03E0
ENDCHAR
STARTCHAR Imacron
ENCODING 298
SWIDTH 600 0
DWIDTH 14 0
BBX 10 21 2 0
BITMAP
3F00
3F00
0000
0000
FFC0
FFC0
0C00
0C00
0C00
0C00
0C00
0C00
0C00
0C00
0C00
0C00
0C00
0C00
0C00
FFC0
FFC0
ENDCHAR
STARTCHAR imacron
ENCODING 299
SWIDTH 600 0
DWIDTH 14 0
BBX 11 17 2 0
BITMAP
3FC0
3FC0
0000
0000
0000
FE00
FE00
0600
0600
0600
0600
0600
0600
0600
0600
07E0
03E0
ENDCHAR
STARTCHAR Ibreve
ENCODING 300
SWIDTH 600 0
DWIDTH 14 0
BBX 10 22 2 0
BITMAP
2180
3100
3F00
0C00
0000
FFC0
FFC0
0C00
0C00
0C00
0C00
0C00
0C00
0C00
0C00
0C00
0C00
0C00
0C00
0C00
FFC0
FFC0
ENDCHAR
STARTCHAR ibreve
ENCODING 301
SWIDTH 600 0
DWIDTH 14 0
BBX 11 17 2 0
BITMAP
3080
1180
1F00
0000
0000
FE00
FE00
0600
0600
0600
0600
0600
0600
0600
0600
07E0
03E0
ENDCHAR
STARTCHAR Iogonek
ENCODING 302
SWIDTH 600 0
DWIDTH 14 0
BBX 10 22 2 -5
BITMAP
FFC0
FFC0
0C00
0C00
0C00
0C00
0C00
0C00
0C00
0C00
0C00
0C00
0C00
0C00
0C00
FFC0
FFC0
00C0
0100
0300
03C0
01C0
ENDCHAR
STARTCHAR iogonek
ENCODING 303
SWIDTH 600 0
DWIDTH 14 0
BBX 11 22 2 -5
BITMAP
0E00
0E00
0E00
0000
0000
FE00
FE00
0600
0600
0600
0600
0600
0600
0600
0600
07E0
03E0
0060
0080
0180
01E0
00E0
ENDCHAR
STARTCHAR Idotaccent
ENCODING 304
SWIDTH 600 0
DWIDTH 14 0
BBX 10 22 2 0
BITMAP
0E00
0E00
0E00
0000
0000
FFC0
FFC0
0C00
0C00
0C00
0C00
0C00
0C00
0C00
0C00
0C00
0C00
0C00
0C00
0C00
FFC0
FFC0
ENDCHAR
STARTCHAR dotlessi
ENCODING 305
SWIDTH 600 0
DWIDTH 14 0
BBX 11 12 2 0
BITMAP
FE00
FE00
0600
0600
0600
0600
0600
0600
0600
0600
07E0
03E0
ENDCHAR
STARTCHAR IJ
ENCODING 306
SWIDTH 600 0
DWIDTH 14 0
BBX 11 17 2 0
BITMAP
C7E0
C7E0
C060
C060
C060
C060
C060
C060
C060
D860
D860
D860
D860
D860
C840
CFC0
C780
ENDCHAR
STARTCHAR ij
ENCODING 307
SWIDTH 600 0
DWIDTH 14 0
BBX 10 22 2 -5
BITMAP
E1C0
E1C0
E1C0
0000
0000
6080
6080
6080
6080
6080
6080
6080
6080
6080
6080
6080
6080
0080
0080
0080
0F80
0F00
ENDCHAR
STARTCHAR Jcircumflex
ENCODING 308
SWIDTH 600 0
DWIDTH 14 0
BBX 10 22 2 0
BITMAP
0700
0F80
1DC0
0000
0000
3FC0
3FC0
0040
0040
0040
0040
0040
0040
0040
C040
C040
C040
C0C0
C0C0
60C0
7F80
1F00
ENDCHAR
STARTCHAR jcircumflex
ENCODING 309
SWIDTH 600 0
DWIDTH 14 0
BBX 11 23 2 -5
BITMAP
0180
0380
06C0
0C60
0000
0000
FF00
FF00
0100
0100
0100
0100
0100
0100
0100
0100
0100
0100
0100
0100
0100
FF00
FE00
ENDCHAR
STARTCHAR uni0136
ENCODING 310
SWIDTH 600 0
DWIDTH 14 0
BBX 11 23 2 -6
BITMAP
C060
C0C0
C180
C180
C300
C600
CC00
CC00
DE00
F600
F300
E300
C180
C0C0
C0C0
C060
C060
0000
0000
0C00
0C00
0400
0C00
ENDCHAR
STARTCHAR uni0137
ENCODING 311
SWIDTH 600 0
DWIDTH 14 0
BBX 10 23 3 -6
BITMAP
8000
8000
8000
8000
8000
8180
8300
8600
8C00
9800
BC00
EC00
C600
8300
8300
8180
80C0
0000
0000
1C00
1C00
0800
1800
ENDCHAR
STARTCHAR kgreenlandic
ENCODING 312
SWIDTH 600 0
DWIDTH 14 0
BBX 10 12 3 0
BITMAP
8180
8300
8600
8C00
9800
BC00
EC00
C600
8300
8300
8180
80C0
ENDCHAR
STARTCHAR Lacute
ENCODING 313
SWIDTH 600 0
DWIDTH 14 0
BBX 11 22 2 0
BITMAP
3800
7000
E000
0000
0000
6000
6000
6000
6000
6000
6000
6000
6000
6000
6000
6000
6000
6000
6000
6000
7FE0
7FE0
ENDCHAR
STARTCHAR lacute
ENCODING 314
SWIDTH 600 0
DWIDTH 14 0
BBX 12 22 1 0
BITMAP
0380
0700
0C00
0000
0000
FC00
FC00
0400
0400
0400
0400
0400
0400
0400
0400
0400
0400
0400
0400
0400
07F0
03F0
ENDCHAR
STARTCHAR uni013B
ENCODING 315
SWIDTH 600 0
DWIDTH 14 0
BBX 10 23 3 -6
BITMAP
C000
C000
C000
C000
C000
C000
C000
C000
C000
C000
C000
C000
C000
C000
C000
FFC0
FFC0
0000
0000
1C00
1C00
0C00
0800
ENDCHAR
STARTCHAR uni013C
ENCODING 316
SWIDTH 600 0
DWIDTH 14 0
BBX 12 23 1 -6
BITMAP
FC00
FC00
0400
0400
0400
0400
0400
0400
0400
0400
0400
0400
0400
0400
0400
07F0
03F0
0000
0000
0E00
0E00
0600
0400
ENDCHAR
STARTCHAR Lcaron
ENCODING 317
SWIDTH 600 0
DWIDTH 14 0
BBX 10 17 3 0
BITMAP
C180
C180
C180
C180
C100
C000
C000
C000
C000
C000
C000
C000
C000
C000
C000
FFC0
FFC0
ENDCHAR
STARTCHAR lcaron
ENCODING 318
SWIDTH 600 0
DWIDTH 14 0
BBX 12 17 1 0
BITMAP
FC70
FC70
0430
0420
0420
0400
0400
0400
0400
0400
0400
0400
0400
0400
0400
07F0
03F0
ENDCHAR
STARTCHAR Ldot
ENCODING 319
SWIDTH 600 0
DWIDTH 14 0
BBX 10 17 3 0
BITMAP
C000
C000
C000
C000
C000
C000
C000
C380
C380
C380
C000
C000
C000
C000
C000
FFC0
FFC0
ENDCHAR
STARTCHAR ldot
ENCODING 320
SWIDTH 600 0
DWIDTH 14 0
BBX 14 17 1 0
BITMAP
FC00
FC00
0400
0400
0400
0400
0400
041C
041C
041C
0400
0400
0400
0400
0400
07F0
03F0
ENDCHAR
STARTCHAR Lslash
ENCODING 321
SWIDTH 600 0
DWIDTH 14 0
BBX 12 17 1 0
BITMAP
3000
3000
3000
3000
3000
3000
3000
3C00
F800
B000
3000
3000
3000
3000
3000
3FF0
3FF0
ENDCHAR
STARTCHAR lslash
ENCODING 322
SWIDTH 600 0
DWIDTH 14 0
BBX 12 17 1 0
BITMAP
FC00
FC00
0400
0400
0400
0400
0400
0780
1F80
3C00
0400
0400
0400
0400
0400
07F0
03F0
ENDCHAR
STARTCHAR Nacute
ENCODING 323
SWIDTH 600 0
DWIDTH 14 0
BBX 10 22 2 0
BITMAP
0300
0600
0C00
0000
0000
E0C0
E0C0
F0C0
F0C0
D8C0
D8C0
C8C0
CCC0
CCC0
C4C0
C6C0
C6C0
C3C0
C3C0
C1C0
C1C0
C1C0
ENDCHAR
STARTCHAR nacute
ENCODING 324
SWIDTH 600 0
DWIDTH 14 0
BBX 10 17 2 0
BITMAP
0300
0600
0E00
0C00
0000
CF00
DF80
E0C0
C0C0
C0C0
C0C0
C0C0
C0C0
C0C0
C0C0
C0C0
C0C0
ENDCHAR
STARTCHAR uni0145
ENCODING 325
SWIDTH 600 0
DWIDTH 14 0
BBX 10 23 2 -6
BITMAP
E0C0
E0C0
F0C0
F0C0
D8C0
D8C0
C8C0
CCC0
CCC0
C4C0
C6C0
C6C0
C3C0
C3C0
C1C0
C1C0
C1C0
0000
0000
0C00
0C00
0400
0C00
ENDCHAR
STARTCHAR uni0146
ENCODING 326
SWIDTH 600 0
DWIDTH 14 0
BBX 10 18 2 -6
BITMAP
CF00
DF80
E0C0
C0C0
C0C0
C0C0
C0C0
C0C0
C0C0
C0C0
C0C0
C0C0
0000
0000
0E00
0E00
0400
0C00
ENDCHAR
STARTCHAR Ncaron
ENCODING 327
SWIDTH 600 0
DWIDTH 14 0
BBX 10 21 2 0
BITMAP
3380
1E00
0C00
0000
E0C0
E0C0
F0C0
F0C0
D8C0
D8C0
C8C0
CCC0
CCC0
C4C0
C6C0
C6C0
C3C0
C3C0
C1C0
C1C0
C1C0
ENDCHAR
STARTCHAR ncaron
ENCODING 328
SWIDTH 600 0
DWIDTH 14 0
BBX 10 17 2 0
BITMAP
3180
1B00
1E00
0C00
0000
CF00
DF80
E0C0
C0C0
C0C0
C0C0
C0C0
C0C0
C0C0
C0C0
C0C0
C0C0
ENDCHAR
STARTCHAR napostrophe
ENCODING 329
SWIDTH 600 0
DWIDTH 14 0
BBX 10 18 2 0
BITMAP
C000
C000
4000
C000
8000
0000
CF00
DF80
E0C0
C0C0
C0C0
C0C0
C0C0
C0C0
C0C0
C0C0
C0C0
C0C0
ENDCHAR
STARTCHAR Eng
ENCODING 330
SWIDTH 600 0
DWIDTH 14 0
BBX 10 22 2 -5
BITMAP
E0C0
E0C0
F0C0
F0C0
D8C0
D8C0
C8C0
CCC0
CCC0
C4C0
C6C0
C6C0
C3C0
C3C0
C1C0
C1C0
C1C0
00C0
00C0
00C0
0FC0
0F80
ENDCHAR
STARTCHAR eng
ENCODING 331
SWIDTH 600 0
DWIDTH 14 0
BBX 10 17 2 -5
BITMAP
CF00
DF80
E0C0
C0C0
C0C0
C0C0
C0C0
C0C0
C0C0
C0C0
C0C0
C0C0
00C0
00C0
00C0
03C0
0380
ENDCHAR
STARTCHAR Omacron
ENCODING 332
SWIDTH 600 0
DWIDTH 14 0
BBX 11 21 2 0
BITMAP
7F80
7F80
0000
0000
3F00
7F80
E0C0
C0C0
C060
C060
C060
C060
C060
C060
C060
C060
C060
C0C0
E0C0
7F80
3F00
ENDCHAR
STARTCHAR omacron
ENCODING 333
SWIDTH 600 0
DWIDTH 14 0
BBX 10 17 2 0
BITMAP
7F80
7F80
0000
0000
0000
1F00
7F80
60C0
C0C0
C040
C040
C040
C040
C0C0
60C0
7F80
1F00
ENDCHAR
STARTCHAR Obreve
ENCODING 334
SWIDTH 600 0
DWIDTH 14 0
BBX 11 21 2 0
BITMAP
2180
3F00
1E00
0000
3F00
7F80
E0C0
C0C0
C060
C060
C060
C060
C060
C060
C060
C060
C060
C0C0
E0C0
7F80
3F00
ENDCHAR
STARTCHAR obreve
ENCODING 335
SWIDTH 600 0
DWIDTH 14 0
BBX 10 17 2 0
BITMAP
2180
3100
1F00
0400
0000
1F00
7F80
60C0
C0C0
C040
C040
C040
C040
C0C0
60C0
7F80
1F00
ENDCHAR
STARTCHAR Ohungarumlaut
ENCODING 336
SWIDTH 600 0
DWIDTH 14 0
BBX 11 21 2 0
BITMAP
0EC0
1980
3300
0000
3F00
7F80
E0C0
C0C0
C060
C060
C060
C060
C060
C060
C060
C060
C060
C0C0
E0C0
7F80
3F00
ENDCHAR
STARTCHAR ohungarumlaut
ENCODING 337
SWIDTH 600 0
DWIDTH 14 0
BBX 11 17 2 0
BITMAP
0EE0
0DC0
1980
3300
0000
1F00
7F80
60C0
C0C0
C040
C040
C040
C040
C0C0
60C0
7F80
1F00
ENDCHAR
STARTCHAR OE
ENCODING 338
SWIDTH 600 0
DWIDTH 14 0
BBX 13 17 1 0
BITMAP
7BF8
7FF8
C300
C300
C300
C300
C300
C3F0
C3F0
C300
C300
C300
C300
C300
C300
7FF8
7BF8
ENDCHAR
STARTCHAR oe
ENCODING 339
SWIDTH 600 0
DWIDTH 14 0
BBX 13 12 1 0
BITMAP
79E0
FDF0
C710
8618
8618
87F8
8600
8600
8618
C710
FDF0
78E0
ENDCHAR
STARTCHAR Racute
ENCODING 340
SWIDTH 600 0
DWIDTH 14 0
BBX 11 22 2 0
BITMAP
0300
0600
0C00
0000
0000
FF00
FFC0
C0C0
C060
C060
C060
C060
C0C0
FFC0
FF80
C600
C600
C300
C180
C180
C0C0
C0C0
ENDCHAR
STARTCHAR racute
ENCODING 341
SWIDTH 600 0
DWIDTH 14 0
BBX 11 18 2 0
BITMAP
0E00
0C00
1800
3000
0000
0000
FBE0
FFE0
1C00
1800
1800
1800
1800
1800
1800
1800
FF80
FF80
ENDCHAR
STARTCHAR uni0156
ENCODING 342
SWIDTH 600 0
DWIDTH 14 0
BBX 11 23 2 -6
BITMAP
FF00
FFC0
C0C0
C060
C060
C060
C060
C0C0
FFC0
FF80
C600
C600
C300
C180
C180
C0C0
C0C0
0000
0000
0C00
0C00
0C00
0800
ENDCHAR
STARTCHAR uni0157
ENCODING 343
SWIDTH 600 0
DWIDTH 14 0
BBX 11 18 2 -6
BITMAP
FBE0
FFE0
1C00
1800
1800
1800
1800
1800
1800
1800
FF80
FF80
0000
0000
1800
1800
1800
1000
ENDCHAR
STARTCHAR Rcaron
ENCODING 344
SWIDTH 600 0
DWIDTH 14 0
BBX 11 21 2 0
BITMAP
3300
1E00
0C00
0000
FF00
FFC0
C0C0
C060
C060
C060
C060
C0C0
FFC0
FF80
C600
C600
C300
C180
C180
C0C0
C0C0
ENDCHAR
STARTCHAR rcaron
ENCODING 345
SWIDTH 600 0
DWIDTH 14 0
BBX 11 18 2 0
BITMAP
C600
6600
3C00
1800
0000
0000
FBE0
FFE0
1C00
1800
1800
1800
1800
1800
1800
1800
FF80
FF80
ENDCHAR
STARTCHAR Sacute
ENCODING 346
SWIDTH 600 0
DWIDTH 14 0
BBX 11 21 2 0
BITMAP
0700
0E00
1C00
0000
3F00
7F80
C0C0
C0C0
C040
C000
6000
7C00
1F00
03C0
00C0
0060
8060
C060
C0C0
7FC0
3F00
ENDCHAR
STARTCHAR sacute
ENCODING 347
SWIDTH 600 0
DWIDTH 14 0
BBX 10 17 2 0
BITMAP
0300
0600
0C00
0C00
0000
3F00
7F80
40C0
C0C0
6000
3E00
0780
00C0
C040
C0C0
7FC0
1F00
ENDCHAR
STARTCHAR Scircumflex
ENCODING 348
SWIDTH 600 0
DWIDTH 14 0
BBX 11 21 2 0
BITMAP
1C00
3F00
7380
0000
3F00
7F80
C0C0
C0C0
C040
C000
6000
7C00
1F00
03C0
00C0
0060
8060
C060
C0C0
7FC0
3F00
ENDCHAR
STARTCHAR scircumflex
ENCODING 349
SWIDTH 600 0
DWIDTH 14 0
BBX 10 17 2 0
BITMAP
0C00
1E00
3B00
3180
0000
3F00
7F80
40C0
C0C0
6000
3E00
0780
00C0
C040
C0C0
7FC0
1F00
ENDCHAR
STARTCHAR Scedilla
ENCODING 350
SWIDTH 600 0
DWIDTH 14 0
BBX 11 22 2 -5
BITMAP
3F00
7F80
C0C0
C0C0
C040
C000
6000
7C00
1F00
03C0
00C0
0060
8060
C060
C0C0
7FC0
3F00
0800
0E00
0300
0300
1E00
ENDCHAR
STARTCHAR scedilla
ENCODING 351
SWIDTH 600 0
DWIDTH 14 0
BBX 10 17 2 -5
BITMAP
3F00
7F80
40C0
C0C0
6000
3E00
0780
00C0
C040
C0C0
7BC0
3F00
0800
0E00
0A00
0200
1E00
ENDCHAR
STARTCHAR Scaron
ENCODING 352
SWIDTH 600 0
DWIDTH 14 0
BBX 11 21 2 0
BITMAP
3300
1E00
0C00
0000
3F00
7F80
C0C0
C0C0
C040
C000
6000
7C00
1F00
03C0
00C0
0060
8060
C060
C0C0
7FC0
3F00
ENDCHAR
STARTCHAR scaron
ENCODING 353
SWIDTH 600 0
DWIDTH 14 0
BBX 10 17 2 0
BITMAP
3180
1B00
1E00
0C00
0000
3F00
7F80
40C0
C0C0
6000
3E00
0780
00C0
C040
C0C0
7FC0
1F00
ENDCHAR
STARTCHAR uni0162
ENCODING 354
SWIDTH 600 0
DWIDTH 14 0
BBX 12 22 1 -5
BITMAP
FFF0
FFF0
0600
0600
0600
0600
0600
0600
0600
0600
0600
0600
0600
0600
0600
0600
0600
0400
0700
0500
0100
0F00
ENDCHAR
STARTCHAR uni0163
ENCODING 355
SWIDTH 600 0
DWIDTH 14 0
BBX 11 20 1 -5
BITMAP
0C00
0C00
0C00
FFE0
FFE0
0C00
0C00
0C00
0C00
0C00
0C00
0C00
0C00
0FE0
07E0
0400
0700
0500
0100
0F00
ENDCHAR
STARTCHAR Tcaron
ENCODING 356
SWIDTH 600 0
DWIDTH 14 0
BBX 12 21 1 0
BITMAP
1980
0F00
0600
0000
FFF0
FFF0
0600
0600
0600
0600
0600
0600
0600
0600
0600
0600
0600
0600
0600
0600
0600
ENDCHAR
STARTCHAR tcaron
ENCODING 357
SWIDTH 600 0
DWIDTH 14 0
BBX 11 17 1 0
BITMAP
00C0
00C0
00C0
0C80
0C80
FFE0
FFE0
0C00
0C00
0C00
0C00
0C00
0C00
0C00
0C00
0FE0
07E0
ENDCHAR
STARTCHAR Tbar
ENCODING 358
SWIDTH 600 0
DWIDTH 14 0
BBX 12 17 1 0
BITMAP
FFF0
FFF0
0600
0600
0600
0600
0600
1FC0
1FC0
0600
0600
0600
0600
0600
0600
0600
0600
ENDCHAR
STARTCHAR tbar
ENCODING 359
SWIDTH 600 0
DWIDTH 14 0
BBX 11 15 1 0
BITMAP
0C00
0C00
0C00
FFE0
FFE0
0C00
0C00
7F80
7F80
0C00
0C00
0C00
0C00
0FE0
07E0
ENDCHAR
STARTCHAR Utilde
ENCODING 360
SWIDTH 600 0
DWIDTH 14 0
BBX 10 22 2 0
BITMAP
3880
7F80
6780
0000
0000
C040
C040
C040
C040
C040
C040
C040
C040
C040
C040
C040
C040
C0C0
C0C0
60C0
7F80
1F00
ENDCHAR
STARTCHAR utilde
ENCODING 361
SWIDTH 600 0
DWIDTH 14 0
BBX 10 17 2 0
BITMAP
3880
7C80
6780
0100
0000
C0C0
C0C0
C0C0
C0C0
C0C0
C0C0
C0C0
C0C0
C0C0
61C0
7FC0
3EC0
ENDCHAR
STARTCHAR Umacron
ENCODING 362
SWIDTH 600 0
DWIDTH 14 0
BBX 10 21 2 0
BITMAP
7F80
7F80
0000
0000
C040
C040
C040
C040
C040
C040
C040
C040
C040
C040
C040
C040
C0C0
C0C0
60C0
7F80
1F00
ENDCHAR
STARTCHAR umacron
ENCODING 363
SWIDTH 600 0
DWIDTH 14 0
BBX 10 17 2 0
BITMAP
7F80
7F80
0000
0000
0000
C0C0
C0C0
C0C0
C0C0
C0C0
C0C0
C0C0
C0C0
C0C0
61C0
7FC0
3EC0
ENDCHAR
STARTCHAR Ubreve
ENCODING 364
SWIDTH 600 0
DWIDTH 14 0
BBX 10 22 2 0
BITMAP
2180
3100
3F00
0C00
0000
C040
C040
C040
C040
C040
C040
C040
C040
C040
C040
C040
C040
C0C0
C0C0
60C0
7F80
1F00
ENDCHAR
STARTCHAR ubreve
ENCODING 365
SWIDTH 600 0
DWIDTH 14 0
BBX 10 17 2 0
BITMAP
2180
3300
1F00
0C00
0000
C0C0
C0C0
C0C0
C0C0
C0C0
C0C0
C0C0
C0C0
C0C0
61C0
7FC0
3EC0
ENDCHAR
STARTCHAR Uring
ENCODING 366
SWIDTH 600 0
DWIDTH 14 0
BBX 10 24 2 0
BITMAP
0E00
1F00
3100
3100
1B00
0E00
0000
C040
C040
C040
C040
C040
C040
C040
C040
C040
C040
C040
C040
C0C0
C0C0
60C0
7F80
1F00
ENDCHAR
STARTCHAR uring
ENCODING 367
SWIDTH 600 0
DWIDTH 14 0
BBX 10 19 2 0
BITMAP
1E00
3300
3100
3300
1E00
0000
0000
C0C0
C0C0
C0C0
C0C0
C0C0
C0C0
C0C0
C0C0
C0C0
61C0
7FC0
3EC0
ENDCHAR
STARTCHAR Uhungarumlaut
ENCODING 368
SWIDTH 600 0
DWIDTH 14 0
BBX 11 22 2 0
BITMAP
0EE0
1D80
3B00
0000
0000
C040
C040
C040
C040
C040
C040
C040
C040
C040
C040
C040
C040
C0C0
C0C0
60C0
7F80
1F00
ENDCHAR
STARTCHAR uhungarumlaut
ENCODING 369
SWIDTH 600 0
DWIDTH 14 0
BBX 11 18 2 0
BITMAP
0EE0
0DC0
1980
3300
0000
0000
C0C0
C0C0
C0C0
C0C0
C0C0
C0C0
C0C0
C0C0
C0C0
61C0
7FC0
3EC0
ENDCHAR
STARTCHAR Uogonek
ENCODING 370
SWIDTH 600 0
DWIDTH 14 0
BBX 10 21 2 -4
BITMAP
C040
C040
C040
C040
C040
C040
C040
C040
C040
C040
C040
C040
C0C0
C0C0
60C0
7F80
1F00
0400
0800
0F00
0F00
ENDCHAR
STARTCHAR uogonek
ENCODING 371
SWIDTH 600 0
DWIDTH 14 0
BBX 10 17 2 -5
BITMAP
C0C0
C0C0
C0C0
C0C0
C0C0
C0C0
C0C0
C0C0
C0C0
61C0
7FC0
3EC0
0080
0300
0300
03C0
01C0
ENDCHAR
STARTCHAR Wcircumflex
ENCODING 372
SWIDTH 600 0
DWIDTH 14 0
BBX 12 22 1 0
BITMAP
0600
0F00
1980
0040
0000
C610
C710
C710
CF10
CD30
CD30
C930
4930
49B0
49B0
59B0
58A0
58A0
50A0
70A0
70E0
70E0
ENDCHAR
STARTCHAR wcircumflex
ENCODING 373
SWIDTH 600 0
DWIDTH 14 0
BBX 13 18 1 0
BITMAP
0600
0F00
0D80
18C0
0000
0000
8618
C610
C710
CF30
CD30
4930
4930
49A0
79A0
78A0
30E0
30E0
ENDCHAR
STARTCHAR Ycircumflex
ENCODING 374
SWIDTH 600 0
DWIDTH 14 0
BBX 12 22 1 0
BITMAP
0600
0F00
1980
0000
0000
C030
6030
6060
3060
30C0
1880
1980
0D00
0700
0600
0600
0600
0600
0600
0600
0600
0600
ENDCHAR
STARTCHAR ycircumflex
ENCODING 375
SWIDTH 600 0
DWIDTH 14 0
BBX 11 23 2 -5
BITMAP
0C00
1E00
1B00
3180
0000
0000
C060
C0C0
C0C0
60C0
6180
2180
3180
3300
1300
1A00
1E00
0E00
0400
0C00
0C00
F800
F000
ENDCHAR
STARTCHAR Ydieresis
ENCODING 376
SWIDTH 600 0
DWIDTH 14 0
BBX 12 22 1 0
BITMAP
39C0
39C0
39C0
0000
0000
C030
6030
6060
3060
30C0
1880
1980
0D00
0700
0600
0600
0600
0600
0600
0600
0600
0600
ENDCHAR
STARTCHAR Zacute
ENCODING 377
SWIDTH 600 0
DWIDTH 14 0
BBX 11 22 2 0
BITMAP
0380
0600
0C00
0000
0000
FFE0
FFE0
00C0
0180
0180
0300
0200
0600
0C00
0800
1800
3000
2000
6000
C000
FFE0
FFE0
ENDCHAR
STARTCHAR zacute
ENCODING 378
SWIDTH 600 0
DWIDTH 14 0
BBX 10 18 2 0
BITMAP
0300
0600
0E00
0C00
0000
0000
7FC0
7FC0
0180
0380
0700
0600
0C00
1800
3000
6000
FFC0
FFC0
ENDCHAR
STARTCHAR Zdotaccent
ENCODING 379
SWIDTH 600 0
DWIDTH 14 0
BBX 11 22 2 0
BITMAP
0E00
0E00
0E00
0000
0000
FFE0
FFE0
00C0
0180
0180
0300
0200
0600
0C00
0800
1800
3000
2000
6000
C000
FFE0
FFE0
ENDCHAR
STARTCHAR zdotaccent
ENCODING 380
SWIDTH 600 0
DWIDTH 14 0
BBX 10 17 2 0
BITMAP
0E00
0E00
0E00
0000
0000
7FC0
7FC0
0180
0380
0700
0600
0C00
1800
3000
6000
FFC0
FFC0
ENDCHAR
STARTCHAR Zcaron
ENCODING 381
SWIDTH 600 0
DWIDTH 14 0
BBX 11 21 2 0
BITMAP
3B80
1E00
0C00
0000
FFE0
FFE0
00C0
0180
0180
0300
0200
0600
0C00
0800
1800
3000
2000
6000
C000
FFE0
FFE0
ENDCHAR
STARTCHAR zcaron
ENCODING 382
SWIDTH 600 0
DWIDTH 14 0
BBX 10 18 2 0
BITMAP
3180
3B00
1E00
0C00
0000
0000
7FC0
7FC0
0180
0380
0700
0600
0C00
1800
3000
6000
FFC0
FFC0
ENDCHAR
STARTCHAR uni018F
ENCODING 399
SWIDTH 600 0
DWIDTH 14 0
BBX 11 17 2 0
BITMAP
3F00
7F80
E0C0
C0C0
C060
C060
0060
0060
FFE0
FFE0
C060
C060
C060
C0C0
E0C0
7F80
1F00
ENDCHAR
STARTCHAR uni019D
ENCODING 413
SWIDTH 600 0
DWIDTH 14 0
BBX 13 22 -1 -5
BITMAP
1C18
1C18
1E18
1E18
1B18
1B18
1918
1998
1998
1898
18D8
18D8
1878
1878
1838
1838
1838
1800
1800
1800
F800
F000
ENDCHAR
STARTCHAR Gcaron
ENCODING 486
SWIDTH 600 0
DWIDTH 14 0
BBX 11 21 2 0
BITMAP
3300
1E00
0C00
0000
3F00
7F80
E0C0
C0C0
C060
C060
C000
C000
C000
C3E0
C3E0
C060
C060
C0E0
E0E0
7F60
3E60
ENDCHAR
STARTCHAR gcaron
ENCODING 487
SWIDTH 600 0
DWIDTH 14 0
BBX 10 22 2 -5
BITMAP
3180
1B00
1E00
0C00
0000
3EC0
7FC0
61C0
C0C0
C0C0
C0C0
C0C0
C0C0
C0C0
61C0
7FC0
3EC0
00C0
00C0
00C0
7FC0
7F80
ENDCHAR
STARTCHAR uni01EA
ENCODING 490
SWIDTH 600 0
DWIDTH 14 0
BBX 11 22 2 -5
BITMAP
3F00
7F80
E0C0
C0C0
C060
C060
C060
C060
C060
C060
C060
C060
C060
C0C0
E0C0
7F80
3F00
0600
0C00
0800
0F00
0F00
ENDCHAR
STARTCHAR uni01EB
ENCODING 491
SWIDTH 600 0
DWIDTH 14 0
BBX 10 17 2 -5
BITMAP
1F00
7F80
60C0
C0C0
C040
C040
C040
C040
C0C0
60C0
7F80
1F00
0400
0C00
1800
0F00
0F00
ENDCHAR
STARTCHAR Aringacute
ENCODING 506
SWIDTH 600 0
DWIDTH 14 0
BBX 12 28 1 0
BITMAP
0180
0300
0600
0000
0700
0F80
1880
1880
0D80
0700
0000
0700
0F00
0D00
0D80
0980
1980
1880
18C0
30C0
30C0
3FE0
3FE0
6060
6060
6030
4030
C030
ENDCHAR
STARTCHAR aringacute
ENCODING 507
SWIDTH 600 0
DWIDTH 14 0
BBX 12 25 2 0
BITMAP
0300
0600
0C00
1800
0000
0000
1E00
3300
2300
3300
1E00
0000
0000
3E00
7F80
E180
C080
0080
0780
7F80
C080
8180
8280
FEF0
78F0
ENDCHAR
STARTCHAR AEacute
ENCODING 508
SWIDTH 600 0
DWIDTH 14 0
BBX 12 22 1 0
BITMAP
00C0
0180
0300
0000
0000
0FF0
1FF0
1B00
1300
1300
3300
3300
33F0
23F0
2300
7F00
7F00
6300
4300
C300
C3F0
C3F0
ENDCHAR
STARTCHAR aeacute
ENCODING 509
SWIDTH 600 0
DWIDTH 14 0
BBX 13 17 1 0
BITMAP
0180
0300
0600
0600
0000
79E0
7DF0
C710
C618
0618
1FF8
7E00
C600
8618
8710
F9F0
71E0
ENDCHAR
STARTCHAR Oslashacute
ENCODING 510
SWIDTH 600 0
DWIDTH 14 0
BBX 11 22 2 0
BITMAP
0300
0600
0C00
0000
0000
3F60
7FC0
E0C0
C1C0
C160
C360
C260
C660
CC60
C860
D860
D060
F060
E0C0
E0C0
FF80
BF00
ENDCHAR
STARTCHAR oslashacute
ENCODING 511
SWIDTH 600 0
DWIDTH 14 0
BBX 10 17 2 0
BITMAP
0300
0600
0C00
0C00
0000
1FC0
7F80
61C0
C3C0
C240
C440
CC40
D840
D0C0
60C0
7F80
5F00
ENDCHAR
STARTCHAR uni0218
ENCODING 536
SWIDTH 600 0
DWIDTH 14 0
BBX 11 23 2 -6
BITMAP
3F00
7F80
C0C0
C0C0
C040
C000
6000
7C00
1F00
03C0
00C0
0060
8060
C060
C0C0
7FC0
3F00
0000
0E00
0E00
0400
0400
0C00
ENDCHAR
STARTCHAR uni0219
ENCODING 537
SWIDTH 600 0
DWIDTH 14 0
BBX 10 18 2 -6
BITMAP
3F00
7F80
40C0
C0C0
6000
3E00
0780
00C0
C040
C0C0
7FC0
1F00
0000
0C00
0C00
0400
0400
0C00
ENDCHAR
STARTCHAR uni021A
ENCODING 538
SWIDTH 600 0
DWIDTH 14 0
BBX 12 23 1 -6
BITMAP
FFF0
FFF0
0600
0600
0600
0600
0600
0600
0600
0600
0600
0600
0600
0600
0600
0600
0600
0000
0600
0600
0200
0200
0600
ENDCHAR
STARTCHAR uni021B
ENCODING 539
SWIDTH 600 0
DWIDTH 14 0
BBX 11 21 1 -6
BITMAP
0C00
0C00
0C00
FFE0
FFE0
0C00
0C00
0C00
0C00
0C00
0C00
0C00
0C00
0FE0
07E0
0000
0700
0700
0200
0200
0600
ENDCHAR
STARTCHAR uni0232
ENCODING 562
SWIDTH 600 0
DWIDTH 14 0
BBX 12 21 1 0
BITMAP
3FC0
3FC0
0000
0000
C030
6030
6060
3060
30C0
1880
1980
0D00
0700
0600
0600
0600
0600
0600
0600
0600
0600
ENDCHAR
STARTCHAR uni0233
ENCODING 563
SWIDTH 600 0
DWIDTH 14 0
BBX 11 22 2 -5
BITMAP
7F80
7F80
0000
0000
0000
C060
C0C0
C0C0
60C0
6180
2180
3180
3300
1300
1A00
1E00
0E00
0400
0C00
0C00
F800
F000
ENDCHAR
STARTCHAR uni0237
ENCODING 567
SWIDTH 600 0
DWIDTH 14 0
BBX 8 17 2 -5
BITMAP
FF
FF
01
01
01
01
01
01
01
01
01
01
01
01
01
FF
FE
ENDCHAR
STARTCHAR uni0259
ENCODING 601
SWIDTH 600 0
DWIDTH 14 0
BBX 10 12 2 0
BITMAP
1F00
7F80
60C0
C0C0
00C0
0040
FFC0
C040
C0C0
60C0
7F80
1F00
ENDCHAR
STARTCHAR uni0272
ENCODING 626
SWIDTH 600 0
DWIDTH 14 0
BBX 12 17 0 -5
BITMAP
33C0
37E0
3830
3030
3030
3030
3030
3030
3030
3030
3030
3030
3000
3000
3000
F000
E000
ENDCHAR
STARTCHAR circumflex
ENCODING 710
SWIDTH 600 0
DWIDTH 14 0
BBX 7 4 4 13
BITMAP
30
78
EC
C6
ENDCHAR
STARTCHAR caron
ENCODING 711
SWIDTH 600 0
DWIDTH 14 0
BBX 7 4 4 13
BITMAP
C6
6C
78
30
ENDCHAR
STARTCHAR breve
ENCODING 728
SWIDTH 600 0
DWIDTH 14 0
BBX 7 4 4 13
BITMAP
86
C4
7C
10
ENDCHAR
STARTCHAR dotaccent
ENCODING 729
SWIDTH 600 0
DWIDTH 14 0
BBX 3 3 6 14
BITMAP
E0
E0
E0
ENDCHAR
STARTCHAR ring
ENCODING 730
SWIDTH 600 0
DWIDTH 14 0
BBX 6 5 4 14
BITMAP
78
CC
C4
CC
78
ENDCHAR
STARTCHAR ogonek
ENCODING 731
SWIDTH 600 0
DWIDTH 14 0
BBX 4 5 5 -5
BITMAP
30
40
C0
F0
70
ENDCHAR
STARTCHAR tilde
ENCODING 732
SWIDTH 600 0
DWIDTH 14 0
BBX 8 4 3 13
BITMAP
71
F9
CF
06
ENDCHAR
STARTCHAR hungarumlaut
ENCODING 733
SWIDTH 600 0
DWIDTH 14 0
BBX 9 4 4 13
BITMAP
3B80
7700
6600
CC00
ENDCHAR
STARTCHAR gravecomb
ENCODING 768
SWIDTH 0 0
DWIDTH 0 0
BBX 4 4 -10 13
BITMAP
C0
60
70
30
ENDCHAR
STARTCHAR acutecomb
ENCODING 769
SWIDTH 0 0
DWIDTH 0 0
BBX 5 4 -9 13
BITMAP
38
30
60
C0
ENDCHAR
STARTCHAR uni0302
ENCODING 770
SWIDTH 0 0
DWIDTH 0 0
BBX 7 4 -11 13
BITMAP
18
3C
6E
C6
ENDCHAR
STARTCHAR tildecomb
ENCODING 771
SWIDTH 0 0
DWIDTH 0 0
BBX 8 4 -11 13
BITMAP
73
FB
9E
04
ENDCHAR
STARTCHAR uni0304
ENCODING 772
SWIDTH 0 0
DWIDTH 0 0
BBX 8 2 -11 15
BITMAP
FF
FF
ENDCHAR
STARTCHAR uni0306
ENCODING 774
SWIDTH 0 0
DWIDTH 0 0
BBX 7 3 -11 14
BITMAP
C2
46
7C
ENDCHAR
STARTCHAR uni0307
ENCODING 775
SWIDTH 0 0
DWIDTH 0 0
BBX 3 3 -9 14
BITMAP
E0
E0
E0
ENDCHAR
STARTCHAR uni0308
ENCODING 776
SWIDTH 0 0
DWIDTH 0 0
BBX 8 3 -11 14
BITMAP
E7
E7
E7
ENDCHAR
STARTCHAR uni030A
ENCODING 778
SWIDTH 0 0
DWIDTH 0 0
BBX 6 5 -10 14
BITMAP
78
CC
8C
CC
78
ENDCHAR
STARTCHAR uni030B
ENCODING 779
SWIDTH 0 0
DWIDTH 0 0
BBX 8 4 -10 13
BITMAP
33
66
EE
CC
ENDCHAR
STARTCHAR uni030C
ENCODING 780
SWIDTH 0 0
DWIDTH 0 0
BBX 7 4 -11 13
BITMAP
C6
6C
3C
18
ENDCHAR
STARTCHAR uni0312
ENCODING 786
SWIDTH 0 0
DWIDTH 0 0
BBX 2 4 -8 14
BITMAP
C0
80
C0
C0
ENDCHAR
STARTCHAR dotbelowcomb
ENCODING 803
SWIDTH 0 0
DWIDTH 0 0
BBX 3 3 -9 -5
BITMAP
E0
E0
E0
ENDCHAR
STARTCHAR uni0326
ENCODING 806
SWIDTH 0 0
DWIDTH 0 0
BBX 2 4 -8 -6
BITMAP
C0
C0
C0
80
ENDCHAR
STARTCHAR uni0327
ENCODING 807
SWIDTH 0 0
DWIDTH 0 0
BBX 4 5 -9 -5
BITMAP
40
F0
F0
30
E0
ENDCHAR
STARTCHAR uni0328
ENCODING 808
SWIDTH 0 0
DWIDTH 0 0
BBX 4 5 -9 -5
BITMAP
20
C0
80
F0
F0
ENDCHAR
STARTCHAR uni0335
ENCODING 821
SWIDTH 0 0
DWIDTH 0 0
BBX 7 2 -11 10
BITMAP
FE
FE
ENDCHAR
STARTCHAR uni00B5.dup1
ENCODING 956
SWIDTH 600 0
DWIDTH 14 0
BBX 10 17 2 -5
BITMAP
C0C0
C0C0
C0C0
C0C0
C0C0
C0C0
C0C0
C0C0
C0C0
E1C0
FFC0
DEC0
C000
C000
C000
C000
C000
ENDCHAR
STARTCHAR Wgrave
ENCODING 7808
SWIDTH 600 0
DWIDTH 14 0
BBX 12 22 1 0
BITMAP
1C00
0E00
0700
0000
0000
C610
C710
C710
CF10
CD30
CD30
C930
4930
49B0
49B0
59B0
58A0
58A0
50A0
70A0
70E0
70E0
ENDCHAR
STARTCHAR wgrave
ENCODING 7809
SWIDTH 600 0
DWIDTH 14 0
BBX 13 18 1 0
BITMAP
1C00
0C00
0600
0300
0000
0000
8618
C610
C710
CF30
CD30
4930
4930
49A0
79A0
78A0
30E0
30E0
ENDCHAR
STARTCHAR Wacute
ENCODING 7810
SWIDTH 600 0
DWIDTH 14 0
BBX 12 22 1 0
BITMAP
0180
0300
0600
0000
0000
C610
C710
C710
CF10
CD30
CD30
C930
4930
49B0
49B0
59B0
58A0
58A0
50A0
70A0
70E0
70E0
ENDCHAR
STARTCHAR wacute
ENCODING 7811
SWIDTH 600 0
DWIDTH 14 0
BBX 13 18 1 0
BITMAP
0180
0300
0700
0600
0000
0000
8618
C610
C710
CF30
CD30
4930
4930
49A0
79A0
78A0
30E0
30E0
ENDCHAR
STARTCHAR Wdieresis
ENCODING 7812
SWIDTH 600 0
DWIDTH 14 0
BBX 12 22 1 0
BITMAP
39C0
39C0
39C0
0000
0000
C610
C710
C710
CF10
CD30
CD30
C930
4930
49B0
49B0
59B0
58A0
58A0
50A0
70A0
70E0
70E0
ENDCHAR
STARTCHAR wdieresis
ENCODING 7813
SWIDTH 600 0
DWIDTH 14 0
BBX 13 17 1 0
BITMAP
39C0
39C0
39C0
0000
0000
8618
C610
C710
CF30
CD30
4930
4930
49A0
79A0
78A0
30E0
30E0
ENDCHAR
STARTCHAR uni1E9E
ENCODING 7838
SWIDTH 600 0
DWIDTH 14 0
BBX 11 17 2 0
BITMAP
7FC0
FFC0
C0C0
C180
C180
C300
C200
C600
C7C0
C0E0
C060
C020
C020
C060
C060
CFC0
CF80
ENDCHAR
STARTCHAR uni1EA0
ENCODING 7840
SWIDTH 600 0
DWIDTH 14 0
BBX 12 22 1 -5
BITMAP
0700
0F00
0D00
0D80
0980
1980
1880
18C0
30C0
30C0
3FE0
3FE0
6060
6060
6030
4030
C030
0000
0000
0700
0700
0700
ENDCHAR
STARTCHAR uni1EA1
ENCODING 7841
SWIDTH 600 0
DWIDTH 14 0
BBX 12 17 2 -5
BITMAP
3E00
7F80
E180
C080
0080
0380
7F80
C080
8180
8280
FEF0
78F0
0000
0000
0C00
0C00
0C00
ENDCHAR
STARTCHAR uni1EB8
ENCODING 7864
SWIDTH 600 0
DWIDTH 14 0
BBX 10 22 3 -5
BITMAP
FFC0
FFC0
8000
8000
8000
8000
8000
FF00
FF00
8000
8000
8000
8000
8000
8000
FFC0
FFC0
0000
0000
1C00
1C00
1C00
ENDCHAR
STARTCHAR uni1EB9
ENCODING 7865
SWIDTH 600 0
DWIDTH 14 0
BBX 10 17 2 -5
BITMAP
1F00
7F80
60C0
C0C0
C040
FFC0
C000
C000
C0C0
60C0
7F80
1F00
0000
0000
0E00
0E00
0E00
ENDCHAR
STARTCHAR uni1EBC
ENCODING 7868
SWIDTH 600 0
DWIDTH 14 0
BBX 10 22 3 0
BITMAP
7980
7F80
C700
0000
0000
FFC0
FFC0
8000
8000
8000
8000
8000
FF00
FF00
8000
8000
8000
8000
8000
8000
FFC0
FFC0
ENDCHAR
STARTCHAR uni1EBD
ENCODING 7869
SWIDTH 600 0
DWIDTH 14 0
BBX 10 17 2 0
BITMAP
3880
7C80
6780
0300
0000
1F00
7F80
60C0
C0C0
C040
FFC0
C000
C000
C0C0
60C0
7F80
1F00
ENDCHAR
STARTCHAR uni1ECA
ENCODING 7882
SWIDTH 600 0
DWIDTH 14 0
BBX 10 22 2 -5
BITMAP
FFC0
FFC0
0C00
0C00
0C00
0C00
0C00
0C00
0C00
0C00
0C00
0C00
0C00
0C00
0C00
FFC0
FFC0
0000
0000
0E00
0E00
0E00
ENDCHAR
STARTCHAR uni1ECB
ENCODING 7883
SWIDTH 600 0
DWIDTH 14 0
BBX 11 22 2 -5
BITMAP
0E00
0E00
0E00
0000
0000
FE00
FE00
0600
0600
0600
0600
0600
0600
0600
0600
07E0
03E0
0000
0000
0E00
0E00
0E00
ENDCHAR
STARTCHAR uni1ECC
ENCODING 7884
SWIDTH 600 0
DWIDTH 14 0
BBX 11 22 2 -5
BITMAP
3F00
7F80
E0C0
C0C0
C060
C060
C060
C060
C060
C060
C060
C060
C060
C0C0
E0C0
7F80
3F00
0000
0000
0E00
0E00
0E00
ENDCHAR
STARTCHAR uni1ECD
ENCODING 7885
SWIDTH 600 0
DWIDTH 14 0
BBX 10 17 2 -5
BITMAP
1F00
7F80
60C0
C0C0
C040
C040
C040
C040
C0C0
60C0
7F80
1F00
0000
0000
0E00
0E00
0E00
ENDCHAR
STARTCHAR uni1EE4
ENCODING 7908
SWIDTH 600 0
DWIDTH 14 0
BBX 10 22 2 -5
BITMAP
C040
C040
C040
C040
C040
C040
C040
C040
C040
C040
C040
C040
C0C0
C0C0
60C0
7F80
1F00
0000
0000
0E00
0E00
0E00
ENDCHAR
STARTCHAR uni1EE5
ENCODING 7909
SWIDTH 600 0
DWIDTH 14 0
BBX 10 17 2 -5
BITMAP
C0C0
C0C0
C0C0
C0C0
C0C0
C0C0
C0C0
C0C0
C0C0
61C0
7FC0
3EC0
0000
0000
0E00
0E00
0E00
ENDCHAR
STARTCHAR Ygrave
ENCODING 7922
SWIDTH 600 0
DWIDTH 14 0
BBX 12 22 1 0
BITMAP
1C00
0E00
0700
0000
0000
C030
6030
6060
3060
30C0
1880
1980
0D00
0700
0600
0600
0600
0600
0600
0600
0600
0600
ENDCHAR
STARTCHAR ygrave
ENCODING 7923
SWIDTH 600 0
DWIDTH 14 0
BBX 11 23 2 -5
BITMAP
3800
1800
0C00
0600
0000
0000
C060
C0C0
C0C0
60C0
6180
2180
3180
3300
1300
1A00
1E00
0E00
0400
0C00
0C00
F800
F000
ENDCHAR
STARTCHAR uni1EF8
ENCODING 7928
SWIDTH 600 0
DWIDTH 14 0
BBX 12 22 1 0
BITMAP
1C40
3FC0
3380
0000
0000
C030
6030
6060
3060
30C0
1880
1980
0D00
0700
0600
0600
0600
0600
0600
0600
0600
0600
ENDCHAR
STARTCHAR uni1EF9
ENCODING 7929
SWIDTH 600 0
DWIDTH 14 0
BBX 11 22 2 -5
BITMAP
3880
7C80
6780
0300
0000
C060
C0C0
C0C0
60C0
6180
2180
3180
3300
1300
1A00
1E00
0E00
0400
0C00
0C00
F800
F000
ENDCHAR
STARTCHAR endash
ENCODING 8211
SWIDTH 600 0
DWIDTH 14 0
BBX 11 2 2 6
BITMAP
FFE0
FFE0
ENDCHAR
STARTCHAR emdash
ENCODING 8212
SWIDTH 600 0
DWIDTH 14 0
BBX 14 2 0 6
BITMAP
FFFC
FFFC
ENDCHAR
STARTCHAR quoteleft
ENCODING 8216
SWIDTH 600 0
DWIDTH 14 0
BBX 3 6 6 11
BITMAP
40
40
80
E0
E0
E0
ENDCHAR
STARTCHAR quoteright
ENCODING 8217
SWIDTH 600 0
DWIDTH 14 0
BBX 3 7 6 10
BITMAP
E0
E0
E0
40
40
C0
80
ENDCHAR
STARTCHAR quotesinglbase
ENCODING 8218
SWIDTH 600 0
DWIDTH 14 0
BBX 3 7 6 -4
BITMAP
E0
E0
E0
40
40
C0
80
ENDCHAR
STARTCHAR quotedblleft
ENCODING 8220
SWIDTH 600 0
DWIDTH 14 0
BBX 7 6 4 11
BITMAP
44
C4
8C
CE
CE
CE
ENDCHAR
STARTCHAR quotedblright
ENCODING 8221
SWIDTH 600 0
DWIDTH 14 0
BBX 7 7 4 10
BITMAP
CE
CE
CE
46
C4
84
88
ENDCHAR
STARTCHAR quotedblbase
ENCODING 8222
SWIDTH 600 0
DWIDTH 14 0
BBX 7 7 4 -4
BITMAP
CE
CE
CE
46
C4
84
88
ENDCHAR
STARTCHAR dagger
ENCODING 8224
SWIDTH 600 0
DWIDTH 14 0
BBX 8 13 3 5
BITMAP
18
18
18
FF
FF
18
18
18
18
18
18
18
18
ENDCHAR
STARTCHAR daggerdbl
ENCODING 8225
SWIDTH 600 0
DWIDTH 14 0
BBX 8 13 3 5
BITMAP
18
18
18
FF
FF
18
18
18
FF
FF
18
18
18
ENDCHAR
STARTCHAR bullet
ENCODING 8226
SWIDTH 600 0
DWIDTH 14 0
BBX 6 6 4 5
BITMAP
78
7C
FC
FC
7C
38
ENDCHAR
STARTCHAR ellipsis
ENCODING 8230
SWIDTH 600 0
DWIDTH 14 0
BBX 12 3 1 0
BITMAP
E730
E730
E730
ENDCHAR
STARTCHAR perthousand
ENCODING 8240
SWIDTH 600 0
DWIDTH 14 0
BBX 13 17 1 0
BITMAP
7000
C800
8C00
8400
CC00
7870
01C0
0F00
7800
C000
0000
78F0
CD10
8518
8D18
C9B0
78E0
ENDCHAR
STARTCHAR guilsinglleft
ENCODING 8249
SWIDTH 600 0
DWIDTH 14 0
BBX 4 9 5 2
BITMAP
30
60
60
C0
80
C0
40
60
30
ENDCHAR
STARTCHAR guilsinglright
ENCODING 8250
SWIDTH 600 0
DWIDTH 14 0
BBX 5 9 5 2
BITMAP
C0
60
30
30
18
10
30
60
60
ENDCHAR
STARTCHAR fraction
ENCODING 8260
SWIDTH 600 0
DWIDTH 14 0
BBX 12 17 1 0
BITMAP
0030
0020
0060
0040
00C0
0000
0000
0000
0000
0000
0000
0000
1000
3000
2000
4000
C000
ENDCHAR
STARTCHAR uni2070
ENCODING 8304
SWIDTH 600 0
DWIDTH 14 0
BBX 6 9 4 9
BITMAP
78
CC
C4
84
84
84
84
C4
7C
ENDCHAR
STARTCHAR uni2074
ENCODING 8308
SWIDTH 600 0
DWIDTH 14 0
BBX 7 9 4 9
BITMAP
38
28
68
48
C8
88
FE
08
08
ENDCHAR
STARTCHAR uni2075
ENCODING 8309
SWIDTH 600 0
DWIDTH 14 0
BBX 6 9 4 9
BITMAP
FC
C0
C0
F8
CC
04
84
C4
7C
ENDCHAR
STARTCHAR uni2076
ENCODING 8310
SWIDTH 600 0
DWIDTH 14 0
BBX 6 9 4 9
BITMAP
78
CC
C4
80
BC
C4
84
C4
7C
ENDCHAR
STARTCHAR uni2077
ENCODING 8311
SWIDTH 600 0
DWIDTH 14 0
BBX 6 9 4 9
BITMAP
FC
84
84
0C
18
10
30
30
20
ENDCHAR
STARTCHAR uni2078
ENCODING 8312
SWIDTH 600 0
DWIDTH 14 0
BBX 7 9 4 9
BITMAP
78
CC
C4
CC
38
CC
86
C6
7C
ENDCHAR
STARTCHAR uni2079
ENCODING 8313
SWIDTH 600 0
DWIDTH 14 0
BBX 6 9 4 9
BITMAP
78
CC
84
84
CC
74
04
C4
7C
ENDCHAR
STARTCHAR uni2080
ENCODING 8320
SWIDTH 600 0
DWIDTH 14 0
BBX 6 10 4 -2
BITMAP
78
CC
C4
84
84
84
84
C4
CC
78
ENDCHAR
STARTCHAR uni2081
ENCODING 8321
SWIDTH 600 0
DWIDTH 14 0
BBX 6 9 4 -1
BITMAP
30
30
30
F0
30
30
30
30
FC
ENDCHAR
STARTCHAR uni2082
ENCODING 8322
SWIDTH 600 0
DWIDTH 14 0
BBX 6 9 4 -1
BITMAP
78
CC
C4
04
0C
38
60
C0
FC
ENDCHAR
STARTCHAR uni2083
ENCODING 8323
SWIDTH 600 0
DWIDTH 14 0
BBX 7 10 4 -2
BITMAP
78
CC
C4
04
38
04
86
86
CC
78
ENDCHAR
STARTCHAR uni2084
ENCODING 8324
SWIDTH 600 0
DWIDTH 14 0
BBX 7 10 4 -2
BITMAP
18
38
28
68
C8
88
88
FE
08
08
ENDCHAR
STARTCHAR uni2085
ENCODING 8325
SWIDTH 600 0
DWIDTH 14 0
BBX 6 10 4 -2
BITMAP
FC
C0
C0
C0
FC
C4
04
84
CC
78
ENDCHAR
STARTCHAR uni2086
ENCODING 8326
SWIDTH 600 0
DWIDTH 14 0
BBX 6 10 4 -2
BITMAP
78
CC
C4
80
B8
CC
84
84
CC
78
ENDCHAR
STARTCHAR uni2087
ENCODING 8327
SWIDTH 600 0
DWIDTH 14 0
BBX 6 9 4 -1
BITMAP
FC
84
84
0C
18
10
30
30
20
ENDCHAR
STARTCHAR uni2088
ENCODING 8328
SWIDTH 600 0
DWIDTH 14 0
BBX 7 10 4 -2
BITMAP
78
CC
C4
CC
78
CC
86
86
CC
78
ENDCHAR
STARTCHAR uni2089
ENCODING 8329
SWIDTH 600 0
DWIDTH 14 0
BBX 6 10 4 -2
BITMAP
78
CC
84
84
CC
74
04
C4
CC
78
ENDCHAR
STARTCHAR Euro
ENCODING 8364
SWIDTH 600 0
DWIDTH 14 0
BBX 12 17 1 0
BITMAP
0F80
1FC0
3060
3020
3030
3030
FF00
3000
3000
3000
FF00
3030
3030
3020
3060
1FC0
0F80
ENDCHAR
STARTCHAR uni20BF
ENCODING 8383
SWIDTH 600 0
DWIDTH 14 0
BBX 11 21 2 -2
BITMAP
3200
3200
FF00
FF80
C0C0
C0C0
C040
C0C0
C0C0
FF80
FF80
C0C0
C060
C060
C060
C060
C0E0
FFC0
FF80
3200
3200
ENDCHAR
STARTCHAR uni2116
ENCODING 8470
SWIDTH 600 0
DWIDTH 14 0
BBX 12 17 2 0
BITMAP
CCE0
CDA0
ED30
ED30
AD30
AD30
AD30
ADA0
ACE0
BC00
BDE0
9C00
9C00
9C00
9C00
9C00
9C00
ENDCHAR
STARTCHAR trademark
ENCODING 8482
SWIDTH 600 0
DWIDTH 14 0
BBX 12 9 1 8
BITMAP
FB30
2330
23D0
23D0
23D0
2310
2310
2310
2310
ENDCHAR
STARTCHAR uni2150
ENCODING 8528
SWIDTH 600 0
DWIDTH 14 0
BBX 13 17 1 0
BITMAP
2030
2020
E060
2040
20C0
2000
2000
2000
F9F8
0108
0018
0030
1020
3060
2060
4040
C040
ENDCHAR
STARTCHAR uni2151
ENCODING 8529
SWIDTH 600 0
DWIDTH 14 0
BBX 13 17 1 0
BITMAP
2030
2020
E060
2040
20C0
2000
2000
2000
F9F0
0118
0118
0118
11F8
3018
2118
4190
C0F0
ENDCHAR
STARTCHAR uni2152
ENCODING 8530
SWIDTH 600 0
DWIDTH 14 0
BBX 13 17 1 0
BITMAP
2030
2020
E060
2040
20C0
2000
2000
2000
F938
0168
0348
0148
1148
3148
2148
4168
C138
ENDCHAR
STARTCHAR uni2153
ENCODING 8531
SWIDTH 600 0
DWIDTH 14 0
BBX 13 17 1 0
BITMAP
2030
2020
E060
2040
20C0
2000
2000
2000
F8F0
0118
0118
0010
1070
3018
2108
4198
C0F0
ENDCHAR
STARTCHAR uni2154
ENCODING 8532
SWIDTH 600 0
DWIDTH 14 0
BBX 13 17 1 0
BITMAP
7030
D820
8C60
0C40
18C0
7000
C000
8000
FCF0
0118
0118
0010
1070
3018
2108
4198
C0F0
ENDCHAR
STARTCHAR uni2155
ENCODING 8533
SWIDTH 600 0
DWIDTH 14 0
BBX 13 17 1 0
BITMAP
2030
2020
E060
2040
20C0
2000
2000
2000
F9F8
0100
0100
0170
1198
3008
2118
4198
C0F0
ENDCHAR
STARTCHAR uni2156
ENCODING 8534
SWIDTH 600 0
DWIDTH 14 0
BBX 13 17 1 0
BITMAP
7030
D820
8C60
0C40
18C0
7000
C000
8000
FDF8
0100
0100
0170
1198
3008
2118
4198
C0F0
ENDCHAR
STARTCHAR uni2157
ENCODING 8535
SWIDTH 600 0
DWIDTH 14 0
BBX 14 17 0 0
BITMAP
3C18
6410
4630
0420
1860
0400
C600
4600
7CFC
0080
0080
00B8
08CC
1804
1084
20CC
6078
ENDCHAR
STARTCHAR uni2158
ENCODING 8536
SWIDTH 600 0
DWIDTH 14 0
BBX 14 17 0 0
BITMAP
1C18
1C10
3C30
6C20
4C60
CC00
FE00
0C00
0CFC
0080
0080
00B8
08CC
1804
108C
20CC
6078
ENDCHAR
STARTCHAR uni2159
ENCODING 8537
SWIDTH 600 0
DWIDTH 14 0
BBX 13 17 1 0
BITMAP
2030
2020
E060
2040
20C0
2000
2000
2000
F8F0
0198
0100
0170
1198
3108
2118
4198
C0F0
ENDCHAR
STARTCHAR uni215A
ENCODING 8538
SWIDTH 600 0
DWIDTH 14 0
BBX 14 17 0 0
BITMAP
7C18
4010
4030
7C20
6460
0600
C600
4600
7C78
00CC
0080
00B8
08CC
1884
108C
20CC
6078
ENDCHAR
STARTCHAR oneeighth
ENCODING 8539
SWIDTH 600 0
DWIDTH 14 0
BBX 13 17 1 0
BITMAP
2030
2020
E060
2040
20C0
2000
2000
2000
F9F0
0118
0118
0190
10F0
3118
2308
4118
C0F0
ENDCHAR
STARTCHAR threeeighths
ENCODING 8540
SWIDTH 600 0
DWIDTH 14 0
BBX 14 17 0 0
BITMAP
3C18
6410
4630
0420
1C60
0400
C600
4600
7C78
00CC
008C
00C8
0878
188C
1184
208C
6078
ENDCHAR
STARTCHAR fiveeighths
ENCODING 8541
SWIDTH 600 0
DWIDTH 14 0
BBX 14 17 0 0
BITMAP
7C18
4010
4030
7C20
6460
0600
C600
4600
7CF8
008C
008C
00C8
0870
188C
1184
208C
60F8
ENDCHAR
STARTCHAR seveneighths
ENCODING 8542
SWIDTH 600 0
DWIDTH 14 0
BBX 14 17 0 0
BITMAP
FE18
C618
0430
0C20
0860
1800
1000
3000
30F8
008C
008C
00C8
0878
188C
1184
208C
6078
ENDCHAR
STARTCHAR uni215F
ENCODING 8543
SWIDTH 600 0
DWIDTH 14 0
BBX 12 17 1 0
BITMAP
2030
2020
E060
2040
20C0
2000
2000
2000
F800
0000
0000
0000
1000
3000
2000
4000
C000
ENDCHAR
STARTCHAR uni2189
ENCODING 8585
SWIDTH 600 0
DWIDTH 14 0
BBX 13 17 1 0
BITMAP
7830
C820
8C60
8C40
8CC0
8C00
8C00
8800
F8F0
0118
0118
0010
1070
3018
2108
4198
C0F0
ENDCHAR
STARTCHAR arrowleft
ENCODING 8592
SWIDTH 600 0
DWIDTH 14 0
BBX 13 11 1 3
BITMAP
0800
1800
3000
6000
C000
FFF8
FFF8
6000
3000
3000
1800
ENDCHAR
STARTCHAR arrowup
ENCODING 8593
SWIDTH 600 0
DWIDTH 14 0
BBX 12 13 1 0
BITMAP
0600
0F00
1FC0
36E0
E630
4600
0600
0600
0600
0600
0600
0600
0600
ENDCHAR
STARTCHAR arrowright
ENCODING 8594
SWIDTH 600 0
DWIDTH 14 0
BBX 13 11 1 3
BITMAP
0080
0180
00C0
0060
0030
FFF8
FFF8
0030
0060
00C0
0180
ENDCHAR
STARTCHAR arrowdown
ENCODING 8595
SWIDTH 600 0
DWIDTH 14 0
BBX 12 13 1 0
BITMAP
0600
0600
0600
0600
0600
0600
0600
4600
E630
36E0
1FC0
0F00
0600
ENDCHAR
STARTCHAR arrowboth
ENCODING 8596
SWIDTH 600 0
DWIDTH 14 0
BBX 14 10 0 3
BITMAP
0860
1830
3030
6018
FFFC
7FFC
2018
3030
1860
0800
ENDCHAR
STARTCHAR arrowupdn
ENCODING 8597
SWIDTH 600 0
DWIDTH 14 0
BBX 9 15 3 1
BITMAP
1800
3C00
7E00
DB80
9880
1800
1800
1800
1800
1800
9880
D980
7F00
3C00
1800
ENDCHAR
STARTCHAR uni2196
ENCODING 8598
SWIDTH 600 0
DWIDTH 14 0
BBX 11 11 2 2
BITMAP
FF80
EF80
E000
B000
9800
8C00
8600
8300
8180
00C0
0060
ENDCHAR
STARTCHAR uni2197
ENCODING 8599
SWIDTH 600 0
DWIDTH 14 0
BBX 12 11 1 2
BITMAP
1FF0
1FF0
00F0
01B0
0330
0630
0C30
1830
3030
6000
C000
ENDCHAR
STARTCHAR uni2198
ENCODING 8600
SWIDTH 600 0
DWIDTH 14 0
BBX 12 11 1 0
BITMAP
C000
6000
3030
1830
0C30
0630
0330
01B0
00F0
1FF0
1FF0
ENDCHAR
STARTCHAR uni2199
ENCODING 8601
SWIDTH 600 0
DWIDTH 14 0
BBX 11 11 2 0
BITMAP
0060
00C0
8180
8300
8600
8C00
9800
B000
E000
FF80
FF80
ENDCHAR
STARTCHAR uni21BA
ENCODING 8634
SWIDTH 600 0
DWIDTH 14 0
BBX 13 16 1 0
BITMAP
0600
0400
0C00
1F80
1FC0
0C60
0630
8210
8018
8018
8018
C010
C030
6060
3FC0
1F80
ENDCHAR
STARTCHAR uni21BB
ENCODING 8635
SWIDTH 600 0
DWIDTH 14 0
BBX 13 16 1 0
BITMAP
0600
0300
0180
0FC0
3F80
6300
C200
C010
8018
8018
8018
C010
C030
6060
3FC0
1F80
ENDCHAR
STARTCHAR partialdiff
ENCODING 8706
SWIDTH 600 0
DWIDTH 14 0
BBX 10 17 2 0
BITMAP
3C00
3F00
0180
01C0
00C0
00C0
00C0
3E40
7F40
E0C0
C0C0
C040
C040
C0C0
C0C0
7F80
1F00
ENDCHAR
STARTCHAR emptyset
ENCODING 8709
SWIDTH 600 0
DWIDTH 14 0
BBX 11 11 2 2
BITMAP
1E60
33C0
6180
C3C0
C640
CC40
D8C0
7080
7380
DE00
8000
ENDCHAR
STARTCHAR product
ENCODING 8719
SWIDTH 600 0
DWIDTH 14 0
BBX 12 17 1 0
BITMAP
FFF0
FFF0
30C0
30C0
30C0
30C0
30C0
30C0
30C0
30C0
30C0
30C0
30C0
30C0
30C0
30C0
30C0
ENDCHAR
STARTCHAR summation
ENCODING 8721
SWIDTH 600 0
DWIDTH 14 0
BBX 10 17 2 0
BITMAP
FFC0
FFC0
6000
6000
3000
1800
1800
0C00
0400
0C00
1800
1800
3000
6000
6000
FFC0
FFC0
ENDCHAR
STARTCHAR minus
ENCODING 8722
SWIDTH 600 0
DWIDTH 14 0
BBX 10 2 2 7
BITMAP
FFC0
FFC0
ENDCHAR
STARTCHAR radical
ENCODING 8730
SWIDTH 600 0
DWIDTH 14 0
BBX 12 17 1 0
BITMAP
00F0
00F0
00C0
0080
0180
C180
4180
6100
6300
6300
2300
3200
3600
3600
1600
1C00
1C00
ENDCHAR
STARTCHAR infinity
ENCODING 8734
SWIDTH 600 0
DWIDTH 14 0
BBX 12 7 1 4
BITMAP
79E0
4D30
C610
C610
C730
6DB0
38E0
ENDCHAR
STARTCHAR integral
ENCODING 8747
SWIDTH 600 0
DWIDTH 14 0
BBX 10 22 2 -4
BITMAP
07C0
07C0
0C00
0C00
0C00
0C00
0C00
0C00
0C00
0C00
0C00
0C00
0C00
0C00
0C00
0C00
0C00
0C00
0C00
0C00
FC00
F000
ENDCHAR
STARTCHAR approxequal
ENCODING 8776
SWIDTH 600 0
DWIDTH 14 0
BBX 10 9 2 3
BITMAP
7840
FC40
C7C0
0380
3000
7840
CCC0
C7C0
0100
ENDCHAR
STARTCHAR notequal
ENCODING 8800
SWIDTH 600 0
DWIDTH 14 0
BBX 10 12 2 2
BITMAP
0200
0200
0600
FFC0
FFC0
0400
0C00
FFC0
FFC0
0800
1800
1000
ENDCHAR
STARTCHAR lessequal
ENCODING 8804
SWIDTH 600 0
DWIDTH 14 0
BBX 10 10 2 3
BITMAP
03C0
3F80
F000
C000
7E00
0FC0
00C0
0000
FFC0
FFC0
ENDCHAR
STARTCHAR greaterequal
ENCODING 8805
SWIDTH 600 0
DWIDTH 14 0
BBX 10 10 2 3
BITMAP
F000
3F00
03C0
00C0
0FC0
FC00
C000
0000
FFC0
FFC0
ENDCHAR
STARTCHAR uni231A
ENCODING 8986
SWIDTH 600 0
DWIDTH 14 0
BBX 11 17 2 0
BITMAP
1F00
1F00
1F00
7FC0
C040
8060
8060
B160
9E60
8C60
8060
8060
8040
7FC0
1F00
1F00
1F00
ENDCHAR
STARTCHAR uni2460
ENCODING 9312
SWIDTH 600 0
DWIDTH 14 0
BBX 13 17 1 0
BITMAP
1F80
38E0
6030
C010
8210
8218
9E18
8218
8218
8218
8218
8218
9F98
C010
C030
7060
1FC0
ENDCHAR
STARTCHAR uni2461
ENCODING 9313
SWIDTH 600 0
DWIDTH 14 0
BBX 13 17 1 0
BITMAP
1F80
39E0
6030
C010
8F18
8998
9898
8098
8198
8718
8C18
9818
9F98
C010
4030
7060
1FC0
ENDCHAR
STARTCHAR uni2462
ENCODING 9314
SWIDTH 600 0
DWIDTH 14 0
BBX 13 17 1 0
BITMAP
1F80
39E0
6030
C010
8F10
9998
9898
8198
8718
8098
9098
9898
8F98
C010
4030
7060
1FC0
ENDCHAR
STARTCHAR uni2463
ENCODING 9315
SWIDTH 600 0
DWIDTH 14 0
BBX 13 17 1 0
BITMAP
1F80
38E0
6030
C010
8710
8718
8F18
8B18
9318
9318
9F98
8318
8318
C010
4030
7060
1FC0
ENDCHAR
STARTCHAR uni2464
ENCODING 9316
SWIDTH 600 0
DWIDTH 14 0
BBX 13 17 1 0
BITMAP
1F80
38E0
6030
C010
8F90
8818
9818
9818
9F98
9898
8098
9898
8F98
C010
4030
7060
1FC0
ENDCHAR
STARTCHAR uni2465
ENCODING 9317
SWIDTH 600 0
DWIDTH 14 0
BBX 13 17 1 0
BITMAP
1F80
39E0
6030
C010
8F10
9998
9898
9818
9F98
9898
9898
9898
8F18
C010
4030
7060
1FC0
ENDCHAR
STARTCHAR uni2466
ENCODING 9318
SWIDTH 600 0
DWIDTH 14 0
BBX 13 17 1 0
BITMAP
1F80
38E0
6030
C010
9F90
9098
8198
8118
8318
8218
8618
8618
8418
C010
4030
7060
1FC0
ENDCHAR
STARTCHAR uni2467
ENCODING 9319
SWIDTH 600 0
DWIDTH 14 0
BBX 13 17 1 0
BITMAP
1F80
39E0
6030
C010
8F10
9998
9898
9998
8F18
8998
9098
9098
9998
8F10
C030
6060
3FC0
ENDCHAR
STARTCHAR uni2468
ENCODING 9320
SWIDTH 600 0
DWIDTH 14 0
BBX 13 17 1 0
BITMAP
1F80
39E0
6030
C010
8F10
9998
9898
9898
9998
8E98
8098
9898
8F18
C010
C030
7060
1FC0
ENDCHAR
STARTCHAR uni2469
ENCODING 9321
SWIDTH 600 0
DWIDTH 14 0
BBX 13 17 1 0
BITMAP
1F80
38E0
6030
C210
9E10
8218
8218
9F98
8018
8F18
9998
9098
9098
9890
CF30
6060
3FC0
ENDCHAR
STARTCHAR uni24EA
ENCODING 9450
SWIDTH 600 0
DWIDTH 14 0
BBX 13 17 1 0
BITMAP
1F80
39E0
6030
C010
8F10
9998
9898
9098
9098
9098
9098
9898
8F18
C010
4030
7060
1FC0
ENDCHAR
STARTCHAR uni24FF
ENCODING 9471
SWIDTH 600 0
DWIDTH 14 0
BBX 13 18 1 -1
BITMAP
1F80
3FE0
7FF0
FFF0
F0F0
F678
E778
EF78
EF78
EF78
EF78
E778
E678
F0F0
FFF0
7FF0
3FE0
1F80
ENDCHAR
STARTCHAR uni25B6
ENCODING 9654
SWIDTH 600 0
DWIDTH 14 0
BBX 13 15 1 1
BITMAP
8000
E000
F000
FC00
FF00
FFC0
FFE0
FFF8
FFF0
FFC0
FF00
FC00
F800
E000
8000
ENDCHAR
STARTCHAR uni25B7
ENCODING 9655
SWIDTH 600 0
DWIDTH 14 0
BBX 13 15 1 1
BITMAP
8000
E000
F000
DC00
C700
C1C0
C0E0
C038
C070
C1C0
C700
DC00
F800
E000
8000
ENDCHAR
STARTCHAR lozenge
ENCODING 9674
SWIDTH 600 0
DWIDTH 14 0
BBX 10 17 2 0
BITMAP
0E00
1E00
1B00
3300
3180
6180
6080
C0C0
C040
C0C0
6080
6180
3180
3300
1B00
1E00
0E00
ENDCHAR
STARTCHAR uni25EF
ENCODING 9711
SWIDTH 600 0
DWIDTH 14 0
BBX 12 13 1 2
BITMAP
0200
1FC0
70E0
6030
C030
C010
8010
8010
C010
C030
6060
3FC0
1F80
ENDCHAR
STARTCHAR uni2776
ENCODING 10102
SWIDTH 600 0
DWIDTH 14 0
BBX 13 18 1 -1
BITMAP
1F80
3FE0
7FF0
FFF0
FDF0
FDF8
F1F8
FDF8
FDF8
FDF8
FDF8
FDF8
E078
E070
FFF0
7FF0
3FE0
1F80
ENDCHAR
STARTCHAR uni2777
ENCODING 10103
SWIDTH 600 0
DWIDTH 14 0
BBX 13 18 1 -1
BITMAP
1F80
3FE0
7FF0
FFF0
F0F0
F678
E778
FF78
FE78
F9F8
F3F8
E7F8
E078
E070
FFF0
7FF0
3FE0
1F80
ENDCHAR
STARTCHAR uni2778
ENCODING 10104
SWIDTH 600 0
DWIDTH 14 0
BBX 13 18 1 -1
BITMAP
1F80
3FE0
7FF0
FFF0
F0F0
F678
E778
FF78
F8F8
FF78
EF78
E778
E078
F0F0
FFF0
7FF0
3FE0
1F80
ENDCHAR
STARTCHAR uni2779
ENCODING 10105
SWIDTH 600 0
DWIDTH 14 0
BBX 13 18 1 -1
BITMAP
1F80
3FE0
7FF0
FFF0
F8F0
F8F8
F4F8
F4F8
ECF8
ECF8
E0F8
E078
FCF8
FCF0
FFF0
7FF0
3FE0
1F80
ENDCHAR
STARTCHAR uni277A
ENCODING 10106
SWIDTH 600 0
DWIDTH 14 0
BBX 13 18 1 -1
BITMAP
1F80
3FE0
7FF0
FFF0
F078
F7F8
E7F8
E0F8
E278
E778
FF78
E778
E078
F0F0
FFF0
7FE0
3FE0
1F80
ENDCHAR
STARTCHAR uni277B
ENCODING 10107
SWIDTH 600 0
DWIDTH 14 0
BBX 13 18 1 -1
BITMAP
1F80
3FE0
7FF0
FFF0
F0F0
F678
E778
E7F8
E078
E778
E778
E778
F078
F0F0
FFF0
7FF0
3FE0
1F80
ENDCHAR
STARTCHAR uni277C
ENCODING 10108
SWIDTH 600 0
DWIDTH 14 0
BBX 13 18 1 -1
BITMAP
1F80
3FE0
7FF0
FFF0
E070
EF78
EF78
FE78
FEF8
FDF8
FDF8
F9F8
FBF8
FBF0
FFF0
7FF0
3FE0
1F80
ENDCHAR
STARTCHAR uni277D
ENCODING 10109
SWIDTH 600 0
DWIDTH 14 0
BBX 13 18 1 -1
BITMAP
1F80
3FE0
7FF0
FFF0
F0F0
E778
E778
F678
F8F8
E778
EF78
E778
E078
F0F0
FFF0
7FE0
3FE0
1F80
ENDCHAR
STARTCHAR uni277E
ENCODING 10110
SWIDTH 600 0
DWIDTH 14 0
BBX 13 18 1 -1
BITMAP
1F80
3FE0
7FF0
FFF0
F0F0
E778
E778
E778
E078
F178
FF78
E778
F678
F0F0
FFF0
7FF0
3FE0
1F80
ENDCHAR
STARTCHAR uni277F
ENCODING 10111
SWIDTH 600 0
DWIDTH 14 0
BBX 13 18 1 -1
BITMAP
1F80
3FE0
7FF0
FDF0
E1F0
FDF8
FDF8
E078
FFF8
F0F8
E778
EF78
E778
E070
F0F0
7FE0
3FE0
0F80
ENDCHAR
STARTCHAR uni2B1B
ENCODING 11035
SWIDTH 600 0
DWIDTH 14 0
BBX 12 12 1 2
BITMAP
FFF0
FFF0
FFF0
FFF0
FFF0
FFF0
FFF0
FFF0
FFF0
FFF0
FFF0
FFF0
ENDCHAR
STARTCHAR uni2B1C
ENCODING 11036
SWIDTH 600 0
DWIDTH 14 0
BBX 12 12 1 2
BITMAP
FFF0
FFF0
C010
C010
C010
C010
C010
C010
C010
C010
FFF0
FFF0
ENDCHAR
STARTCHAR uni2B24
ENCODING 11044
SWIDTH 600 0
DWIDTH 14 0
BBX 12 13 1 2
BITMAP
0600
1FC0
7FE0
7FF0
FFF0
FFF0
FFF0
FFF0
FFF0
FFF0
7FE0
3FC0
1F80
ENDCHAR
STARTCHAR uniE132
ENCODING 57650
SWIDTH 600 0
DWIDTH 14 0
BBX 12 23 2 -5
BITMAP
3870
30E0
60C0
C180
0000
0000
6080
6080
6080
6080
6080
6080
6080
6080
6080
6080
6080
6080
0080
0080
0080
0F80
0F00
ENDCHAR
STARTCHAR uniE133
ENCODING 57651
SWIDTH 600 0
DWIDTH 14 0
BBX 12 22 1 0
BITMAP
3870
70E0
E180
0000
0000
63F0
63F0
6030
6030
6030
6030
6030
6030
6030
6C30
6C30
6C30
6C30
6C30
6420
67E0
63C0
ENDCHAR
STARTCHAR fi
ENCODING 64257
SWIDTH 600 0
DWIDTH 14 0
BBX 11 17 1 0
BITMAP
1E60
3E60
3000
3000
3000
FFE0
FFE0
3060
3060
3060
3060
3060
3060
3060
3060
3060
3060
ENDCHAR
STARTCHAR fl
ENCODING 64258
SWIDTH 600 0
DWIDTH 14 0
BBX 11 17 1 0
BITMAP
1E60
3E60
3060
3060
3060
FE60
FE60
3060
3060
3060
3060
3060
3060
3060
3060
3060
3060
ENDCHAR
STARTCHAR .notdef
ENCODING -1
SWIDTH 600 0
DWIDTH 14 0
BBX 11 17 2 0
BITMAP
FF80
FBC0
81E0
9BE0
E3E0
FFE0
C1E0
ADE0
B5E0
C1E0
FFE0
FBE0
81E0
9BE0
E3E0
FFE0
FFE0
ENDCHAR
STARTCHAR i.loclTRK
ENCODING -1
SWIDTH 600 0
DWIDTH 14 0
BBX 11 17 2 0
BITMAP
0E00
0E00
0E00
0000
0000
FE00
FE00
0600
0600
0600
0600
0600
0600
0600
0600
07E0
03E0
ENDCHAR
STARTCHAR a.ss01
ENCODING -1
SWIDTH 600 0
DWIDTH 14 0
BBX 10 12 2 0
BITMAP
3EC0
7FC0
61C0
C0C0
C0C0
C0C0
C0C0
C0C0
C0C0
61C0
7FC0
3EC0
ENDCHAR
STARTCHAR aacute.ss01
ENCODING -1
SWIDTH 600 0
DWIDTH 14 0
BBX 10 17 2 0
BITMAP
0300
0600
0E00
0C00
0000
3EC0
7FC0
61C0
C0C0
C0C0
C0C0
C0C0
C0C0
C0C0
61C0
7FC0
3EC0
ENDCHAR
STARTCHAR abreve.ss01
ENCODING -1
SWIDTH 600 0
DWIDTH 14 0
BBX 10 17 2 0
BITMAP
2180
3180
1F00
0400
0000
3EC0
7FC0
61C0
C0C0
C0C0
C0C0
C0C0
C0C0
C0C0
61C0
7FC0
3EC0
ENDCHAR
STARTCHAR acircumflex.ss01
ENCODING -1
SWIDTH 600 0
DWIDTH 14 0
BBX 10 17 2 0
BITMAP
0E00
1E00
1B00
3180
0000
3EC0
7FC0
61C0
C0C0
C0C0
C0C0
C0C0
C0C0
C0C0
61C0
7FC0
3EC0
ENDCHAR
STARTCHAR adieresis.ss01
ENCODING -1
SWIDTH 600 0
DWIDTH 14 0
BBX 10 17 2 0
BITMAP
3380
3380
3380
0000
0000
3EC0
7FC0
61C0
C0C0
C0C0
C0C0
C0C0
C0C0
C0C0
61C0
7FC0
3EC0
ENDCHAR
STARTCHAR uni1EA1.ss01
ENCODING -1
SWIDTH 600 0
DWIDTH 14 0
BBX 10 17 2 -5
BITMAP
3EC0
7FC0
61C0
C0C0
C0C0
C0C0
C0C0
C0C0
C0C0
61C0
7FC0
3EC0
0000
0000
0E00
0E00
0E00
ENDCHAR
STARTCHAR agrave.ss01
ENCODING -1
SWIDTH 600 0
DWIDTH 14 0
BBX 10 17 2 0
BITMAP
3800
1C00
0C00
0600
0000
3EC0
7FC0
61C0
C0C0
C0C0
C0C0
C0C0
C0C0
C0C0
61C0
7FC0
3EC0
ENDCHAR
STARTCHAR amacron.ss01
ENCODING -1
SWIDTH 600 0
DWIDTH 14 0
BBX 10 17 2 0
BITMAP
3F80
3F80
0000
0000
0000
3EC0
7FC0
61C0
C0C0
C0C0
C0C0
C0C0
C0C0
C0C0
61C0
7FC0
3EC0
ENDCHAR
STARTCHAR aogonek.ss01
ENCODING -1
SWIDTH 600 0
DWIDTH 14 0
BBX 10 17 2 -5
BITMAP
3EC0
7FC0
61C0
C0C0
C0C0
C0C0
C0C0
C0C0
C0C0
61C0
7FC0
3EC0
0080
0100
0300
03C0
01C0
ENDCHAR
STARTCHAR aring.ss01
ENCODING -1
SWIDTH 600 0
DWIDTH 14 0
BBX 10 19 2 0
BITMAP
1F00
1300
3100
1300
1F00
0000
0000
3EC0
7FC0
61C0
C0C0
C0C0
C0C0
C0C0
C0C0
C0C0
61C0
7FC0
3EC0
ENDCHAR
STARTCHAR aringacute.ss01
ENCODING -1
SWIDTH 600 0
DWIDTH 14 0
BBX 10 25 2 0
BITMAP
0300
0700
0600
0C00
0000
0000
1F00
1300
3100
1300
1F00
0000
0000
3EC0
7FC0
61C0
C0C0
C0C0
C0C0
C0C0
C0C0
C0C0
61C0
7FC0
3EC0
ENDCHAR
STARTCHAR atilde.ss01
ENCODING -1
SWIDTH 600 0
DWIDTH 14 0
BBX 10 17 2 0
BITMAP
38C0
7C80
6780
0100
0000
3EC0
7FC0
61C0
C0C0
C0C0
C0C0
C0C0
C0C0
C0C0
61C0
7FC0
3EC0
ENDCHAR
STARTCHAR g.ss02
ENCODING -1
SWIDTH 600 0
DWIDTH 14 0
BBX 10 17 2 -5
BITMAP
3EC0
7FC0
61C0
C0C0
C0C0
C0C0
C0C0
C0C0
C0C0
61C0
7EC0
1CC0
00C0
C0C0
60C0
7F80
3F00
ENDCHAR
STARTCHAR gbreve.ss02
ENCODING -1
SWIDTH 600 0
DWIDTH 14 0
BBX 10 22 2 -5
BITMAP
2180
3100
1F00
0400
0000
3EC0
7FC0
61C0
C0C0
C0C0
C0C0
C0C0
C0C0
C0C0
61C0
7EC0
1CC0
00C0
C0C0
60C0
7F80
3F00
ENDCHAR
STARTCHAR gcaron.ss02
ENCODING -1
SWIDTH 600 0
DWIDTH 14 0
BBX 10 22 2 -5
BITMAP
3180
1B00
1E00
0C00
0000
3EC0
7FC0
61C0
C0C0
C0C0
C0C0
C0C0
C0C0
C0C0
61C0
7EC0
1CC0
00C0
C0C0
60C0
7F80
3F00
ENDCHAR
STARTCHAR gcircumflex.ss02
ENCODING -1
SWIDTH 600 0
DWIDTH 14 0
BBX 10 22 2 -5
BITMAP
0C00
1E00
3B00
3180
0000
3EC0
7FC0
61C0
C0C0
C0C0
C0C0
C0C0
C0C0
C0C0
61C0
7EC0
1CC0
00C0
C0C0
60C0
7F80
3F00
ENDCHAR
STARTCHAR uni0123.ss02
ENCODING -1
SWIDTH 600 0
DWIDTH 14 0
BBX 10 23 2 -5
BITMAP
0400
0C00
0C00
0C00
0000
0000
3EC0
7FC0
61C0
C0C0
C0C0
C0C0
C0C0
C0C0
C0C0
61C0
7EC0
1CC0
00C0
C0C0
60C0
7F80
3F00
ENDCHAR
STARTCHAR gdotaccent.ss02
ENCODING -1
SWIDTH 600 0
DWIDTH 14 0
BBX 10 22 2 -5
BITMAP
0E00
0E00
0E00
0000
0000
3EC0
7FC0
61C0
C0C0
C0C0
C0C0
C0C0
C0C0
C0C0
61C0
7EC0
1CC0
00C0
C0C0
60C0
7F80
3F00
ENDCHAR
STARTCHAR g.ss03
ENCODING -1
SWIDTH 600 0
DWIDTH 14 0
BBX 12 17 1 -5
BITMAP
1FF0
3FF0
60C0
6040
6040
6040
70C0
3F80
3E00
4000
7FC0
7FF0
4030
4010
C010
7FF0
3FE0
ENDCHAR
STARTCHAR gbreve.ss03
ENCODING -1
SWIDTH 600 0
DWIDTH 14 0
BBX 12 22 1 -5
BITMAP
3080
1180
1F00
0000
0000
1FF0
3FF0
60C0
6040
6040
6040
70C0
3F80
3E00
4000
7FC0
7FF0
4030
4010
C010
7FF0
3FE0
ENDCHAR
STARTCHAR gcaron.ss03
ENCODING -1
SWIDTH 600 0
DWIDTH 14 0
BBX 12 23 1 -5
BITMAP
3180
1B80
0F00
0600
0000
0000
1FF0
3FF0
60C0
6040
6040
6040
70C0
3F80
3E00
4000
7FC0
7FF0
4030
4010
C010
7FF0
3FE0
ENDCHAR
STARTCHAR gcircumflex.ss03
ENCODING -1
SWIDTH 600 0
DWIDTH 14 0
BBX 12 23 1 -5
BITMAP
0600
0F00
1B80
3180
0000
0000
1FF0
3FF0
60C0
6040
6040
6040
70C0
3F80
3E00
4000
7FC0
7FF0
4030
4010
C010
7FF0
3FE0
ENDCHAR
STARTCHAR uni0123.ss03
ENCODING -1
SWIDTH 600 0
DWIDTH 14 0
BBX 12 24 1 -5
BITMAP
0200
0400
0400
0600
0600
0000
0000
1FF0
3FF0
60C0
6040
6040
6040
70C0
3F80
3E00
4000
7FC0
7FF0
4030
4010
C010
7FF0
3FE0
ENDCHAR
STARTCHAR gdotaccent.ss03
ENCODING -1
SWIDTH 600 0
DWIDTH 14 0
BBX 12 22 1 -5
BITMAP
0E00
0E00
0E00
0000
0000
1FF0
3FF0
60C0
6040
6040
6040
70C0
3F80
3E00
4000
7FC0
7FF0
4030
4010
C010
7FF0
3FE0
ENDCHAR
STARTCHAR i.ss04
ENCODING -1
SWIDTH 600 0
DWIDTH 14 0
BBX 11 17 2 0
BITMAP
0E00
0E00
0E00
0000
0000
FE00
FE00
0600
0600
0600
0600
0600
0600
0600
0600
FFE0
FFE0
ENDCHAR
STARTCHAR dotlessi.ss04
ENCODING -1
SWIDTH 600 0
DWIDTH 14 0
BBX 11 12 2 0
BITMAP
FE00
FE00
0600
0600
0600
0600
0600
0600
0600
0600
FFE0
FFE0
ENDCHAR
STARTCHAR iacute.ss04
ENCODING -1
SWIDTH 600 0
DWIDTH 14 0
BBX 11 18 2 0
BITMAP
0380
0300
0600
0C00
0000
0000
FE00
FE00
0600
0600
0600
0600
0600
0600
0600
0600
FFE0
FFE0
ENDCHAR
STARTCHAR ibreve.ss04
ENCODING -1
SWIDTH 600 0
DWIDTH 14 0
BBX 11 17 2 0
BITMAP
3080
1180
1F00
0000
0000
FE00
FE00
0600
0600
0600
0600
0600
0600
0600
0600
FFE0
FFE0
ENDCHAR
STARTCHAR icircumflex.ss04
ENCODING -1
SWIDTH 600 0
DWIDTH 14 0
BBX 11 18 2 0
BITMAP
0600
0F00
1B80
3180
0000
0000
FE00
FE00
0600
0600
0600
0600
0600
0600
0600
0600
FFE0
FFE0
ENDCHAR
STARTCHAR idieresis.ss04
ENCODING -1
SWIDTH 600 0
DWIDTH 14 0
BBX 11 17 2 0
BITMAP
39C0
39C0
39C0
0000
0000
FE00
FE00
0600
0600
0600
0600
0600
0600
0600
0600
FFE0
FFE0
ENDCHAR
STARTCHAR i.loclTRK.ss04
ENCODING -1
SWIDTH 600 0
DWIDTH 14 0
BBX 11 17 2 0
BITMAP
0E00
0E00
0E00
0000
0000
FE00
FE00
0600
0600
0600
0600
0600
0600
0600
0600
FFE0
FFE0
ENDCHAR
STARTCHAR uni1ECB.ss04
ENCODING -1
SWIDTH 600 0
DWIDTH 14 0
BBX 11 22 2 -5
BITMAP
0E00
0E00
0E00
0000
0000
FE00
FE00
0600
0600
0600
0600
0600
0600
0600
0600
FFE0
FFE0
0000
0000
0E00
0E00
0E00
ENDCHAR
STARTCHAR igrave.ss04
ENCODING -1
SWIDTH 600 0
DWIDTH 14 0
BBX 11 18 2 0
BITMAP
1800
0C00
0E00
0600
0000
0000
FE00
FE00
0600
0600
0600
0600
0600
0600
0600
0600
FFE0
FFE0
ENDCHAR
STARTCHAR imacron.ss04
ENCODING -1
SWIDTH 600 0
DWIDTH 14 0
BBX 11 17 2 0
BITMAP
3FC0
3FC0
0000
0000
0000
FE00
FE00
0600
0600
0600
0600
0600
0600
0600
0600
FFE0
FFE0
ENDCHAR
STARTCHAR iogonek.ss04
ENCODING -1
SWIDTH 600 0
DWIDTH 14 0
BBX 11 22 2 -5
BITMAP
0E00
0E00
0E00
0000
0000
FE00
FE00
0600
0600
0600
0600
0600
0600
0600
0600
FFE0
FFE0
0060
0080
0180
01E0
00E0
ENDCHAR
STARTCHAR itilde.ss04
ENCODING -1
SWIDTH 600 0
DWIDTH 14 0
BBX 11 17 2 0
BITMAP
1CC0
3EC0
27C0
0100
0000
FE00
FE00
0600
0600
0600
0600
0600
0600
0600
0600
FFE0
FFE0
ENDCHAR
STARTCHAR l.ss04
ENCODING -1
SWIDTH 600 0
DWIDTH 14 0
BBX 11 17 2 0
BITMAP
FC00
FC00
0400
0400
0400
0400
0400
0400
0400
0400
0400
0400
0400
0400
0400
FFE0
FFE0
ENDCHAR
STARTCHAR lacute.ss04
ENCODING -1
SWIDTH 600 0
DWIDTH 14 0
BBX 11 22 2 0
BITMAP
0380
0700
0C00
0000
0000
FC00
FC00
0400
0400
0400
0400
0400
0400
0400
0400
0400
0400
0400
0400
0400
FFE0
FFE0
ENDCHAR
STARTCHAR lcaron.ss04
ENCODING -1
SWIDTH 600 0
DWIDTH 14 0
BBX 11 17 2 0
BITMAP
FC60
FC60
0420
0460
0440
0400
0400
0400
0400
0400
0400
0400
0400
0400
0400
FFE0
FFE0
ENDCHAR
STARTCHAR uni013C.ss04
ENCODING -1
SWIDTH 600 0
DWIDTH 14 0
BBX 11 23 2 -6
BITMAP
FC00
FC00
0400
0400
0400
0400
0400
0400
0400
0400
0400
0400
0400
0400
0400
FFE0
FFE0
0000
0000
0E00
0E00
0400
0400
ENDCHAR
STARTCHAR ldot.ss04
ENCODING -1
SWIDTH 600 0
DWIDTH 14 0
BBX 12 17 2 0
BITMAP
FC00
FC00
0400
0400
0400
0400
0400
0430
0430
0430
0400
0400
0400
0400
0400
FFE0
FFE0
ENDCHAR
STARTCHAR lslash.ss04
ENCODING -1
SWIDTH 600 0
DWIDTH 14 0
BBX 11 17 2 0
BITMAP
FC00
FC00
0400
0400
0400
0400
0400
0780
3F00
3C00
0400
0400
0400
0400
0400
FFE0
FFE0
ENDCHAR
STARTCHAR zero.osf
ENCODING -1
SWIDTH 600 0
DWIDTH 14 0
BBX 11 13 2 0
BITMAP
0C00
3F80
61C0
C0C0
C040
C060
C060
C060
C060
C0C0
60C0
7F80
1F00
ENDCHAR
STARTCHAR one.osf
ENCODING -1
SWIDTH 600 0
DWIDTH 14 0
BBX 10 12 2 0
BITMAP
0C00
0C00
0C00
7C00
6C00
0C00
0C00
0C00
0C00
0C00
FFC0
FFC0
ENDCHAR
STARTCHAR two.osf
ENCODING -1
SWIDTH 600 0
DWIDTH 14 0
BBX 10 13 2 0
BITMAP
0E00
3F80
60C0
C040
C040
00C0
01C0
0700
1C00
7000
6000
FFC0
FFC0
ENDCHAR
STARTCHAR three.osf
ENCODING -1
SWIDTH 600 0
DWIDTH 14 0
BBX 11 17 2 -5
BITMAP
1F00
7F80
60C0
C0C0
C0C0
00C0
0180
0F00
0F80
00C0
0060
8060
C060
C040
60C0
7F80
0E00
ENDCHAR
STARTCHAR four.osf
ENCODING -1
SWIDTH 600 0
DWIDTH 14 0
BBX 11 17 2 -4
BITMAP
0700
0700
0D00
0900
1900
3100
3100
6100
4100
C100
8100
FFE0
FFE0
0100
0100
0100
0100
ENDCHAR
STARTCHAR five.osf
ENCODING -1
SWIDTH 600 0
DWIDTH 14 0
BBX 11 17 2 -5
BITMAP
7FC0
7FC0
4000
4000
4000
4600
5F80
E0C0
C0C0
0060
0060
0060
C060
C0C0
61C0
3F80
0E00
ENDCHAR
STARTCHAR six.osf
ENCODING -1
SWIDTH 600 0
DWIDTH 14 0
BBX 10 17 2 0
BITMAP
1F00
7F80
60C0
C0C0
C0C0
C000
C000
CF00
FF80
E0C0
C0C0
C040
C040
C0C0
60C0
7F80
3F00
ENDCHAR
STARTCHAR seven.osf
ENCODING -1
SWIDTH 600 0
DWIDTH 14 0
BBX 10 16 2 -4
BITMAP
FFC0
FFC0
C0C0
C0C0
0180
0180
0300
0600
0600
0400
0C00
0C00
1800
1800
1800
1800
ENDCHAR
STARTCHAR eight.osf
ENCODING -1
SWIDTH 600 0
DWIDTH 14 0
BBX 11 17 2 0
BITMAP
1F00
7F80
60C0
C0C0
C0C0
C0C0
60C0
3380
3F00
61C0
C0C0
8060
8060
8060
C0C0
7FC0
3F00
ENDCHAR
STARTCHAR nine.osf
ENCODING -1
SWIDTH 600 0
DWIDTH 14 0
BBX 10 18 2 -5
BITMAP
0C00
3F80
61C0
C0C0
C040
C040
C040
C0C0
6140
7F40
0C40
0040
C040
C0C0
C0C0
61C0
3F80
0E00
ENDCHAR
STARTCHAR zero.ss05
ENCODING -1
SWIDTH 600 0
DWIDTH 14 0
BBX 11 17 2 0
BITMAP
3F00
7F80
E0C0
C0C0
C040
C060
C060
C060
C060
C060
C060
C060
C040
C0C0
60C0
7F80
3F00
ENDCHAR
STARTCHAR zero.zero
ENCODING -1
SWIDTH 600 0
DWIDTH 14 0
BBX 11 17 2 0
BITMAP
3F00
7F80
E0C0
C0C0
C0C0
C1E0
C360
C660
CC60
D860
F060
E060
E040
C0C0
60C0
7F80
3F00
ENDCHAR
STARTCHAR zero.dnom
ENCODING -1
SWIDTH 600 0
DWIDTH 14 0
BBX 6 9 4 0
BITMAP
7C
C4
84
84
84
84
C4
CC
78
ENDCHAR
STARTCHAR one.dnom
ENCODING -1
SWIDTH 600 0
DWIDTH 14 0
BBX 6 10 4 0
BITMAP
30
30
30
F0
30
30
30
30
30
FC
ENDCHAR
STARTCHAR two.dnom
ENCODING -1
SWIDTH 600 0
DWIDTH 14 0
BBX 6 9 4 0
BITMAP
7C
C4
C4
04
1C
30
40
C0
FC
ENDCHAR
STARTCHAR three.dnom
ENCODING -1
SWIDTH 600 0
DWIDTH 14 0
BBX 7 9 4 0
BITMAP
7C
CC
C4
0C
38
04
86
CC
78
ENDCHAR
STARTCHAR four.dnom
ENCODING -1
SWIDTH 600 0
DWIDTH 14 0
BBX 7 9 4 0
BITMAP
38
28
68
48
C8
88
FE
08
08
ENDCHAR
STARTCHAR five.dnom
ENCODING -1
SWIDTH 600 0
DWIDTH 14 0
BBX 6 9 4 0
BITMAP
FC
C0
C0
FC
C4
04
84
CC
78
ENDCHAR
STARTCHAR six.dnom
ENCODING -1
SWIDTH 600 0
DWIDTH 14 0
BBX 6 9 4 0
BITMAP
7C
C4
80
B8
CC
84
84
CC
78
ENDCHAR
STARTCHAR seven.dnom
ENCODING -1
SWIDTH 600 0
DWIDTH 14 0
BBX 6 9 4 0
BITMAP
FC
84
0C
08
18
10
30
30
20
ENDCHAR
STARTCHAR eight.dnom
ENCODING -1
SWIDTH 600 0
DWIDTH 14 0
BBX 7 9 4 0
BITMAP
7C
C4
84
4C
78
C4
86
CC
78
ENDCHAR
STARTCHAR nine.dnom
ENCODING -1
SWIDTH 600 0
DWIDTH 14 0
BBX 6 9 4 0
BITMAP
7C
C4
84
C4
7C
04
C4
CC
78
ENDCHAR
STARTCHAR zero.numr
ENCODING -1
SWIDTH 600 0
DWIDTH 14 0
BBX 6 10 4 7
BITMAP
78
CC
C4
84
84
84
84
C4
CC
78
ENDCHAR
STARTCHAR one.numr
ENCODING -1
SWIDTH 600 0
DWIDTH 14 0
BBX 6 9 4 8
BITMAP
30
30
F0
70
30
30
30
30
FC
ENDCHAR
STARTCHAR two.numr
ENCODING -1
SWIDTH 600 0
DWIDTH 14 0
BBX 6 10 4 7
BITMAP
78
CC
C4
C4
0C
18
70
C0
C0
FC
ENDCHAR
STARTCHAR three.numr
ENCODING -1
SWIDTH 600 0
DWIDTH 14 0
BBX 7 10 4 7
BITMAP
78
CC
C4
04
38
04
86
86
CC
78
ENDCHAR
STARTCHAR four.numr
ENCODING -1
SWIDTH 600 0
DWIDTH 14 0
BBX 7 10 4 7
BITMAP
18
38
28
68
C8
88
88
FE
08
08
ENDCHAR
STARTCHAR five.numr
ENCODING -1
SWIDTH 600 0
DWIDTH 14 0
BBX 6 10 4 7
BITMAP
FC
C0
C0
F8
CC
04
04
84
CC
78
ENDCHAR
STARTCHAR six.numr
ENCODING -1
SWIDTH 600 0
DWIDTH 14 0
BBX 6 10 4 7
BITMAP
78
CC
C4
80
B8
CC
84
84
CC
78
ENDCHAR
STARTCHAR seven.numr
ENCODING -1
SWIDTH 600 0
DWIDTH 14 0
BBX 6 9 4 8
BITMAP
FC
84
84
0C
18
10
30
30
20
ENDCHAR
STARTCHAR eight.numr
ENCODING -1
SWIDTH 600 0
DWIDTH 14 0
BBX 7 10 4 7
BITMAP
78
CC
C4
CC
78
4C
86
86
CC
78
ENDCHAR
STARTCHAR nine.numr
ENCODING -1
SWIDTH 600 0
DWIDTH 14 0
BBX 6 10 4 7
BITMAP
78
CC
C4
84
CC
7C
04
C4
CC
78
ENDCHAR
STARTCHAR uni2080.zero
ENCODING -1
SWIDTH 600 0
DWIDTH 14 0
BBX 6 10 4 -2
BITMAP
78
CC
C4
8C
94
A4
E4
C4
CC
78
ENDCHAR
STARTCHAR zero.dnom.zero
ENCODING -1
SWIDTH 600 0
DWIDTH 14 0
BBX 6 9 4 0
BITMAP
7C
C4
8C
9C
B4
A4
C4
CC
78
ENDCHAR
STARTCHAR zero.numr.zero
ENCODING -1
SWIDTH 600 0
DWIDTH 14 0
BBX 6 10 4 7
BITMAP
78
CC
C4
8C
94
A4
E4
C4
CC
78
ENDCHAR
STARTCHAR uni2070.zero
ENCODING -1
SWIDTH 600 0
DWIDTH 14 0
BBX 6 9 4 9
BITMAP
78
CC
C4
8C
94
A4
C4
C4
7C
ENDCHAR
STARTCHAR exclamdown.case
ENCODING -1
SWIDTH 600 0
DWIDTH 14 0
BBX 3 17 6 0
BITMAP
E0
E0
E0
00
00
C0
C0
C0
C0
C0
C0
C0
C0
C0
C0
C0
C0
ENDCHAR
STARTCHAR questiondown.case
ENCODING -1
SWIDTH 600 0
DWIDTH 14 0
BBX 10 17 2 0
BITMAP
0E00
0E00
0E00
0000
0000
0C00
0C00
0C00
1C00
3800
7000
60C0
C0C0
C0C0
6180
7F80
1F00
ENDCHAR
STARTCHAR parenleft.case
ENCODING -1
SWIDTH 600 0
DWIDTH 14 0
BBX 7 21 4 -2
BITMAP
06
1E
38
30
60
60
C0
C0
C0
C0
C0
C0
C0
C0
C0
40
60
30
38
1E
06
ENDCHAR
STARTCHAR parenright.case
ENCODING -1
SWIDTH 600 0
DWIDTH 14 0
BBX 7 21 3 -2
BITMAP
C0
F0
18
0C
0C
06
06
06
02
02
02
02
02
06
06
06
0C
0C
18
F0
E0
ENDCHAR
STARTCHAR braceleft.case
ENCODING -1
SWIDTH 600 0
DWIDTH 14 0
BBX 10 22 2 -3
BITMAP
03C0
07C0
0400
0400
0400
0400
0400
0400
0C00
0C00
F800
FC00
0C00
0400
0400
0400
0400
0400
0400
0400
07C0
01C0
ENDCHAR
STARTCHAR braceright.case
ENCODING -1
SWIDTH 600 0
DWIDTH 14 0
BBX 10 22 2 -3
BITMAP
F800
FC00
0C00
0C00
0C00
0C00
0C00
0C00
0C00
0C00
07C0
07C0
0C00
0C00
0C00
0C00
0C00
0C00
0C00
0C00
F800
F000
ENDCHAR
STARTCHAR bracketleft.case
ENCODING -1
SWIDTH 600 0
DWIDTH 14 0
BBX 7 22 5 -3
BITMAP
FE
FE
80
80
80
80
80
80
80
80
80
80
80
80
80
80
80
80
80
80
FE
FE
ENDCHAR
STARTCHAR bracketright.case
ENCODING -1
SWIDTH 600 0
DWIDTH 14 0
BBX 7 22 3 -3
BITMAP
FE
FE
06
06
06
06
06
06
06
06
06
06
06
06
06
06
06
06
06
06
FE
FE
ENDCHAR
STARTCHAR hyphen.case
ENCODING -1
SWIDTH 600 0
DWIDTH 14 0
BBX 7 2 4 7
BITMAP
FE
FE
ENDCHAR
STARTCHAR endash.case
ENCODING -1
SWIDTH 600 0
DWIDTH 14 0
BBX 11 2 2 7
BITMAP
FFE0
FFE0
ENDCHAR
STARTCHAR emdash.case
ENCODING -1
SWIDTH 600 0
DWIDTH 14 0
BBX 14 2 0 7
BITMAP
FFFC
FFFC
ENDCHAR
STARTCHAR guillemotleft.case
ENCODING -1
SWIDTH 600 0
DWIDTH 14 0
BBX 9 9 3 3
BITMAP
3300
6300
6600
C400
CC00
C600
6600
3300
3180
ENDCHAR
STARTCHAR guillemotright.case
ENCODING -1
SWIDTH 600 0
DWIDTH 14 0
BBX 9 9 3 3
BITMAP
CC00
6600
6300
3300
3180
3300
6600
C600
CC00
ENDCHAR
STARTCHAR guilsinglleft.case
ENCODING -1
SWIDTH 600 0
DWIDTH 14 0
BBX 5 9 4 3
BITMAP
18
30
20
60
C0
60
30
30
18
ENDCHAR
STARTCHAR guilsinglright.case
ENCODING -1
SWIDTH 600 0
DWIDTH 14 0
BBX 5 9 5 3
BITMAP
60
60
30
10
18
30
30
60
C0
ENDCHAR
STARTCHAR uni0308.case
ENCODING -1
SWIDTH 0 0
DWIDTH 0 0
BBX 8 3 -11 13
BITMAP
E7
E7
E7
ENDCHAR
STARTCHAR uni0307.case
ENCODING -1
SWIDTH 0 0
DWIDTH 0 0
BBX 3 3 -9 13
BITMAP
E0
E0
E0
ENDCHAR
STARTCHAR gravecomb.case
ENCODING -1
SWIDTH 0 0
DWIDTH 0 0
BBX 4 3 -10 14
BITMAP
C0
60
30
ENDCHAR
STARTCHAR acutecomb.case
ENCODING -1
SWIDTH 0 0
DWIDTH 0 0
BBX 5 3 -10 14
BITMAP
38
70
E0
ENDCHAR
STARTCHAR uni030B.case
ENCODING -1
SWIDTH 0 0
DWIDTH 0 0
BBX 8 3 -10 14
BITMAP
33
66
CC
ENDCHAR
STARTCHAR uni0302.case
ENCODING -1
SWIDTH 0 0
DWIDTH 0 0
BBX 7 3 -11 14
BITMAP
38
7C
E6
ENDCHAR
STARTCHAR uni030C.case
ENCODING -1
SWIDTH 0 0
DWIDTH 0 0
BBX 7 3 -11 13
BITMAP
E6
3C
18
ENDCHAR
STARTCHAR uni0306.case
ENCODING -1
SWIDTH 0 0
DWIDTH 0 0
BBX 7 3 -11 14
BITMAP
C2
46
7C
ENDCHAR
STARTCHAR uni030A.case
ENCODING -1
SWIDTH 0 0
DWIDTH 0 0
BBX 6 5 -10 13
BITMAP
78
CC
8C
D8
70
ENDCHAR
STARTCHAR tildecomb.case
ENCODING -1
SWIDTH 0 0
DWIDTH 0 0
BBX 8 3 -11 14
BITMAP
F3
FF
8E
ENDCHAR
STARTCHAR uni0304.case
ENCODING -1
SWIDTH 0 0
DWIDTH 0 0
BBX 8 2 -11 14
BITMAP
FF
FF
ENDCHAR
ENDFONT
